M48
;Layer_Color=9474304
;FILE_FORMAT=2:5
INCH,TZ
;TYPE=PLATED
T1F00S00C0.00787
T2F00S00C0.01181
T3F00S00C0.03543
%
T01
X357772Y253071
X362102
Y257402
X357772
T02
X341500Y202000
X345000Y205000
X350500
X353500Y203000
X356000Y206000
X359000Y203500
X362000Y205000
X362500Y208500
X365000Y203500
X368000Y205500
X371000Y203500
X375000Y202500
X372000Y207500
X372500Y216000
X384000Y207500
X399500Y207000
Y217000
Y227000
Y236000
X390000
X392500Y257500
X384500
X376000Y258000
X375500Y263000
X378500Y265500
X363874Y266374
X352500Y262500
X345500Y259000
X348000Y253500
X344000Y250500
X340500Y249000
X335000
X339000Y242500
X349500Y240500
X354000Y246500
X352000Y249000
X368000Y245500
X347446Y228272
X345000Y225500
X341500Y211000
X338000Y209500
X329500Y221000
X323500Y228000
X325500Y240500
X322000Y241500
X320500Y249000
X314500Y256500
X318000Y267500
X329500
X340000Y266500
X400000Y268500
Y261000
X399500Y196500
X377500Y193500
X306500Y214000
X310000Y236500
X309500Y241750
X300000Y251000
X304000Y261000
X299000Y267000
X294500Y262500
X289000Y267500
X279000
X282000Y261500
X285000Y251500
X285299Y241500
X268500Y267500
X308500
X274500Y197500
T03
X267500Y208130
Y227815
Y247500
M30
