%FSLAX25Y25*%
%MOIN*%
G70*
G01*
G75*
%ADD18C,0.06000*%
%ADD21R,0.02520X0.02362*%
%ADD22R,0.02362X0.02520*%
%ADD28R,0.05512X0.05118*%
%ADD30C,0.01000*%
%ADD34C,0.02000*%
%ADD35C,0.02362*%
%ADD36C,0.01968*%
%ADD37R,0.08268X0.06299*%
%ADD38R,0.01575X0.05315*%
%ADD39R,0.07480X0.05709*%
%ADD40O,0.05709X0.02362*%
%ADD41R,0.04528X0.05512*%
%ADD42R,0.04528X0.05315*%
%ADD43C,0.00811*%
%ADD44C,0.01968*%
%ADD45C,0.01575*%
G36*
X402500Y191004D02*
X377603D01*
X377553Y191504D01*
X378268Y191646D01*
X378919Y192081D01*
X379354Y192732D01*
X379507Y193500D01*
X379354Y194268D01*
X378919Y194919D01*
X378268Y195354D01*
X377500Y195507D01*
X376732Y195354D01*
X376081Y194919D01*
X375646Y194268D01*
X375493Y193500D01*
X375646Y192732D01*
X376081Y192081D01*
X376732Y191646D01*
X377447Y191504D01*
X377397Y191004D01*
X263003D01*
X263003Y270497D01*
X402500Y270497D01*
Y191004D01*
D02*
G37*
%LPC*%
G36*
X288071Y211216D02*
X284437D01*
X284047Y211139D01*
X283716Y210918D01*
X283495Y210587D01*
X283417Y210197D01*
Y207547D01*
X288071D01*
Y211216D01*
D02*
G37*
G36*
X295158Y211216D02*
X294870D01*
X294480Y211139D01*
X294149Y210918D01*
X294074Y210806D01*
X293501D01*
X293426Y210918D01*
X293095Y211139D01*
X292705Y211216D01*
X289071D01*
Y207047D01*
Y202878D01*
X292705D01*
X293095Y202956D01*
X293426Y203177D01*
X293647Y203507D01*
X293724Y203897D01*
X293738Y203906D01*
X293930Y204025D01*
X294224Y204111D01*
X294480Y203940D01*
X294870Y203862D01*
X295158D01*
Y207539D01*
Y211216D01*
D02*
G37*
G36*
X372500Y218007D02*
X371732Y217854D01*
X371081Y217419D01*
X370646Y216768D01*
X370493Y216000D01*
X370518Y215874D01*
X366956Y212313D01*
X364234D01*
X364113Y212394D01*
X363611Y212494D01*
X349681D01*
X349179Y212394D01*
X348753Y212109D01*
X344072Y207428D01*
X343787Y207002D01*
X343687Y206500D01*
Y206490D01*
X343581Y206419D01*
X343146Y205768D01*
X342993Y205000D01*
X343146Y204232D01*
X343220Y204121D01*
X343220Y204116D01*
X342975Y203587D01*
X342720Y203552D01*
X342268Y203854D01*
X341500Y204007D01*
X340732Y203854D01*
X340081Y203419D01*
X339646Y202768D01*
X339493Y202000D01*
X339646Y201232D01*
X340081Y200581D01*
X340732Y200146D01*
X341500Y199993D01*
X342268Y200146D01*
X342919Y200581D01*
X342990Y200687D01*
X345792D01*
X346294Y200787D01*
X346720Y201072D01*
X348609Y202961D01*
X348784Y203223D01*
X348919Y203386D01*
X349400Y203368D01*
X349732Y203146D01*
X350500Y202993D01*
X351003Y203093D01*
X351347Y203028D01*
X351547Y202730D01*
X351646Y202232D01*
X352081Y201581D01*
X352732Y201146D01*
X353500Y200993D01*
X354268Y201146D01*
X354919Y201581D01*
X355354Y202232D01*
X355507Y203000D01*
X355387Y203605D01*
X355661Y203967D01*
X355771Y204038D01*
X356000Y203993D01*
X356605Y204113D01*
X356967Y203839D01*
X357038Y203729D01*
X356993Y203500D01*
X357146Y202732D01*
X357581Y202081D01*
X358232Y201646D01*
X359000Y201493D01*
X359768Y201646D01*
X360419Y202081D01*
X360854Y202732D01*
X361007Y203500D01*
X360854Y204268D01*
X360419Y204919D01*
X359768Y205354D01*
X359000Y205507D01*
X358395Y205387D01*
X358033Y205661D01*
X357962Y205771D01*
X358007Y206000D01*
X357854Y206768D01*
X357748Y206927D01*
X357983Y207368D01*
X360889D01*
X361081Y207081D01*
X361732Y206646D01*
X362500Y206493D01*
X363268Y206646D01*
X363919Y207081D01*
X364354Y207732D01*
X364507Y208500D01*
X364370Y209187D01*
X364614Y209687D01*
X367500D01*
X368002Y209787D01*
X368428Y210072D01*
X372374Y214018D01*
X372500Y213993D01*
X373268Y214146D01*
X373919Y214581D01*
X374354Y215232D01*
X374507Y216000D01*
X374354Y216768D01*
X373919Y217419D01*
X373268Y217854D01*
X372500Y218007D01*
D02*
G37*
G36*
X368000Y207507D02*
X367232Y207354D01*
X366581Y206919D01*
X366146Y206268D01*
X366047Y205770D01*
X365847Y205472D01*
X365503Y205407D01*
X365000Y205507D01*
X364232Y205354D01*
X363581Y204919D01*
X363146Y204268D01*
X362993Y203500D01*
X363146Y202732D01*
X363581Y202081D01*
X364232Y201646D01*
X365000Y201493D01*
X365768Y201646D01*
X366419Y202081D01*
X366854Y202732D01*
X366953Y203230D01*
X367153Y203528D01*
X367497Y203593D01*
X368000Y203493D01*
X368503Y203593D01*
X368847Y203528D01*
X369046Y203230D01*
X369146Y202732D01*
X369581Y202081D01*
X370232Y201646D01*
X371000Y201493D01*
X371768Y201646D01*
X372419Y202081D01*
X372533Y202251D01*
X373063Y202145D01*
X373146Y201732D01*
X373581Y201081D01*
X374232Y200646D01*
X375000Y200493D01*
X375768Y200646D01*
X376419Y201081D01*
X376854Y201732D01*
X377007Y202500D01*
X376854Y203268D01*
X376419Y203919D01*
X375768Y204354D01*
X375000Y204507D01*
X374232Y204354D01*
X373581Y203919D01*
X373467Y203749D01*
X372937Y203855D01*
X372854Y204268D01*
X372419Y204919D01*
X371768Y205354D01*
X371000Y205507D01*
X370497Y205407D01*
X370153Y205472D01*
X369953Y205770D01*
X369854Y206268D01*
X369419Y206919D01*
X368768Y207354D01*
X368000Y207507D01*
D02*
G37*
G36*
X318134Y206547D02*
X313480D01*
Y202878D01*
X317114D01*
X317504Y202956D01*
X317835Y203177D01*
X318056Y203507D01*
X318134Y203898D01*
Y206547D01*
D02*
G37*
G36*
X324500Y204768D02*
X322721D01*
Y204087D01*
X322798Y203696D01*
X323019Y203366D01*
X323350Y203145D01*
X323740Y203067D01*
X324500D01*
Y204768D01*
D02*
G37*
G36*
X327279D02*
X325500D01*
Y203067D01*
X326260D01*
X326650Y203145D01*
X326981Y203366D01*
X327202Y203696D01*
X327279Y204087D01*
Y204768D01*
D02*
G37*
G36*
X294945Y218507D02*
X291598D01*
X290830Y218354D01*
X290179Y217919D01*
X289744Y217268D01*
X289591Y216500D01*
X289744Y215732D01*
X290179Y215081D01*
X290830Y214646D01*
X291598Y214493D01*
X294945D01*
X295713Y214646D01*
X296364Y215081D01*
X296799Y215732D01*
X296952Y216500D01*
X296799Y217268D01*
X296364Y217919D01*
X295713Y218354D01*
X294945Y218507D01*
D02*
G37*
G36*
Y228507D02*
X291598D01*
X290830Y228354D01*
X290179Y227919D01*
X289744Y227268D01*
X289591Y226500D01*
X289744Y225732D01*
X290179Y225081D01*
X290830Y224646D01*
X291598Y224493D01*
X294945D01*
X295713Y224646D01*
X296364Y225081D01*
X296799Y225732D01*
X296952Y226500D01*
X296799Y227268D01*
X296364Y227919D01*
X295713Y228354D01*
X294945Y228507D01*
D02*
G37*
G36*
X323500Y230007D02*
X322732Y229854D01*
X322081Y229419D01*
X321646Y228768D01*
X321493Y228000D01*
X321646Y227232D01*
X322081Y226581D01*
X322732Y226146D01*
X323500Y225993D01*
X324268Y226146D01*
X324919Y226581D01*
X325354Y227232D01*
X325507Y228000D01*
X325354Y228768D01*
X324919Y229419D01*
X324268Y229854D01*
X323500Y230007D01*
D02*
G37*
G36*
X352933Y231000D02*
X351232D01*
Y229221D01*
X351913D01*
X352304Y229298D01*
X352634Y229519D01*
X352855Y229850D01*
X352933Y230240D01*
Y231000D01*
D02*
G37*
G36*
X267500Y231635D02*
X266511Y231505D01*
X265590Y231123D01*
X264799Y230516D01*
X264192Y229725D01*
X263810Y228804D01*
X263680Y227815D01*
X263810Y226826D01*
X264192Y225905D01*
X264799Y225114D01*
X265590Y224507D01*
X266511Y224125D01*
X267500Y223995D01*
X268489Y224125D01*
X269410Y224507D01*
X270201Y225114D01*
X270808Y225905D01*
X271190Y226826D01*
X271320Y227815D01*
X271190Y228804D01*
X270808Y229725D01*
X270201Y230516D01*
X269410Y231123D01*
X268489Y231505D01*
X267500Y231635D01*
D02*
G37*
G36*
X352933Y220500D02*
X351232D01*
Y218721D01*
X351913D01*
X352304Y218798D01*
X352634Y219019D01*
X352855Y219350D01*
X352933Y219740D01*
Y220500D01*
D02*
G37*
G36*
X294945Y223507D02*
X291598D01*
X290830Y223354D01*
X290179Y222919D01*
X289744Y222268D01*
X289591Y221500D01*
X289744Y220732D01*
X290179Y220081D01*
X290830Y219646D01*
X291598Y219493D01*
X294945D01*
X295713Y219646D01*
X296364Y220081D01*
X296799Y220732D01*
X296952Y221500D01*
X296799Y222268D01*
X296364Y222919D01*
X295713Y223354D01*
X294945Y223507D01*
D02*
G37*
G36*
X351913Y223279D02*
X351232D01*
Y221500D01*
X352933D01*
Y222260D01*
X352855Y222650D01*
X352634Y222981D01*
X352304Y223202D01*
X351913Y223279D01*
D02*
G37*
G36*
X288071Y206547D02*
X283417D01*
Y203898D01*
X283495Y203507D01*
X283716Y203177D01*
X284047Y202956D01*
X284437Y202878D01*
X288071D01*
Y206547D01*
D02*
G37*
G36*
X315039Y197000D02*
X310780D01*
Y194646D01*
X310857Y194255D01*
X311078Y193925D01*
X311409Y193704D01*
X311799Y193626D01*
X315039D01*
Y197000D01*
D02*
G37*
G36*
X320299D02*
X316039D01*
Y193626D01*
X319280D01*
X319670Y193704D01*
X320001Y193925D01*
X320221Y194255D01*
X320299Y194646D01*
Y197000D01*
D02*
G37*
G36*
X331500Y200350D02*
X328224D01*
Y198291D01*
X328302Y197901D01*
X328523Y197570D01*
X328854Y197349D01*
X329244Y197272D01*
X331500D01*
Y200350D01*
D02*
G37*
G36*
X310260Y197000D02*
X306000D01*
Y193626D01*
X309240D01*
X309630Y193704D01*
X309961Y193925D01*
X310182Y194255D01*
X310260Y194646D01*
Y197000D01*
D02*
G37*
G36*
X285512D02*
X281252D01*
Y194646D01*
X281330Y194255D01*
X281551Y193925D01*
X281881Y193704D01*
X282272Y193626D01*
X285512D01*
Y197000D01*
D02*
G37*
G36*
X290772D02*
X286512D01*
Y193626D01*
X289752D01*
X290142Y193704D01*
X290473Y193925D01*
X290694Y194255D01*
X290772Y194646D01*
Y197000D01*
D02*
G37*
G36*
X295551D02*
X291291D01*
Y194646D01*
X291369Y194255D01*
X291590Y193925D01*
X291921Y193704D01*
X292311Y193626D01*
X295551D01*
Y197000D01*
D02*
G37*
G36*
X335775Y200350D02*
X332500D01*
Y197272D01*
X334756D01*
X335146Y197349D01*
X335477Y197570D01*
X335698Y197901D01*
X335775Y198291D01*
Y200350D01*
D02*
G37*
G36*
X319280Y201374D02*
X316039D01*
Y198000D01*
X320299D01*
Y200354D01*
X320221Y200745D01*
X320001Y201075D01*
X319670Y201296D01*
X319280Y201374D01*
D02*
G37*
G36*
X309240D02*
X306000D01*
Y198000D01*
X310260D01*
Y200354D01*
X310182Y200745D01*
X309961Y201075D01*
X309630Y201296D01*
X309240Y201374D01*
D02*
G37*
G36*
X305000D02*
X301760D01*
X301370Y201296D01*
X301039Y201075D01*
X300512D01*
X300182Y201296D01*
X299791Y201374D01*
X296551D01*
Y197500D01*
Y193626D01*
X299791D01*
X300182Y193704D01*
X300512Y193925D01*
X301039D01*
X301370Y193704D01*
X301760Y193626D01*
X305000D01*
Y197500D01*
Y201374D01*
D02*
G37*
G36*
X289752D02*
X286512D01*
Y198000D01*
X290772D01*
Y200354D01*
X290694Y200745D01*
X290473Y201075D01*
X290142Y201296D01*
X289752Y201374D01*
D02*
G37*
G36*
X295551D02*
X292311D01*
X291921Y201296D01*
X291590Y201075D01*
X291369Y200745D01*
X291291Y200354D01*
Y198000D01*
X295551D01*
Y201374D01*
D02*
G37*
G36*
X315039D02*
X311799D01*
X311409Y201296D01*
X311078Y201075D01*
X310857Y200745D01*
X310780Y200354D01*
Y198000D01*
X315039D01*
Y201374D01*
D02*
G37*
G36*
X285512D02*
X282272D01*
X281881Y201296D01*
X281551Y201075D01*
X281330Y200745D01*
X281252Y200354D01*
Y198000D01*
X285512D01*
Y201374D01*
D02*
G37*
G36*
X316402Y253724D02*
X315228D01*
Y252000D01*
X318526D01*
X318456Y252351D01*
X317974Y253073D01*
X317253Y253555D01*
X316402Y253724D01*
D02*
G37*
G36*
X314228D02*
X313055D01*
X312204Y253555D01*
X311483Y253073D01*
X311001Y252351D01*
X310931Y252000D01*
X314228D01*
Y253724D01*
D02*
G37*
G36*
X345500Y261007D02*
X344732Y260854D01*
X344081Y260419D01*
X343646Y259768D01*
X343493Y259000D01*
X343646Y258232D01*
X344081Y257581D01*
X344732Y257146D01*
X345500Y256993D01*
X346268Y257146D01*
X346919Y257581D01*
X347354Y258232D01*
X347507Y259000D01*
X347354Y259768D01*
X346919Y260419D01*
X346268Y260854D01*
X345500Y261007D01*
D02*
G37*
G36*
X317209Y264960D02*
X312681D01*
X312374Y264899D01*
X312113Y264725D01*
X311939Y264465D01*
X311878Y264158D01*
Y258842D01*
X311939Y258535D01*
X312113Y258275D01*
X312374Y258101D01*
X312678Y258040D01*
Y257316D01*
X312646Y257268D01*
X312493Y256500D01*
X312646Y255732D01*
X313081Y255081D01*
X313732Y254646D01*
X314500Y254493D01*
X315268Y254646D01*
X315919Y255081D01*
X316354Y255732D01*
X316507Y256500D01*
X316354Y257268D01*
X316322Y257316D01*
Y258040D01*
X317209D01*
X317516Y258101D01*
X317776Y258275D01*
X317950Y258535D01*
X318011Y258842D01*
Y264158D01*
X317950Y264465D01*
X317776Y264725D01*
X317516Y264899D01*
X317209Y264960D01*
D02*
G37*
G36*
X318526Y251000D02*
X315228D01*
Y249276D01*
X316402D01*
X317253Y249445D01*
X317974Y249927D01*
X318456Y250649D01*
X318526Y251000D01*
D02*
G37*
G36*
X314228D02*
X310931D01*
X311001Y250649D01*
X311483Y249927D01*
X312204Y249445D01*
X313055Y249276D01*
X314228D01*
Y251000D01*
D02*
G37*
G36*
X348000Y255507D02*
X347232Y255354D01*
X346581Y254919D01*
X346146Y254268D01*
X345993Y253500D01*
X346146Y252732D01*
X346581Y252081D01*
X347232Y251646D01*
X348000Y251493D01*
X348768Y251646D01*
X349419Y252081D01*
X349854Y252732D01*
X350007Y253500D01*
X349854Y254268D01*
X349419Y254919D01*
X348768Y255354D01*
X348000Y255507D01*
D02*
G37*
G36*
X287279Y258232D02*
X285000D01*
X282721D01*
Y257551D01*
X282798Y257161D01*
X283019Y256830D01*
X283039Y256817D01*
X282998Y256756D01*
X282937Y256449D01*
Y254087D01*
X282998Y253779D01*
X283172Y253519D01*
X283178Y253516D01*
Y252316D01*
X283146Y252268D01*
X282993Y251500D01*
X283146Y250732D01*
X283581Y250081D01*
X284232Y249646D01*
X285000Y249493D01*
X285768Y249646D01*
X285840Y249694D01*
X290759D01*
X290830Y249646D01*
X291598Y249493D01*
X294945D01*
X295713Y249646D01*
X296364Y250081D01*
X296799Y250732D01*
X296952Y251500D01*
X296799Y252268D01*
X296364Y252919D01*
X295713Y253354D01*
X294945Y253507D01*
X291598D01*
X290830Y253354D01*
X290759Y253306D01*
X287287D01*
X287006Y253772D01*
X287007Y253806D01*
X287063Y254087D01*
Y256449D01*
X287002Y256756D01*
X286961Y256817D01*
X286981Y256830D01*
X287202Y257161D01*
X287279Y257551D01*
Y258232D01*
D02*
G37*
G36*
X299000Y269007D02*
X298232Y268854D01*
X297581Y268419D01*
X297146Y267768D01*
X296993Y267000D01*
X297146Y266232D01*
X297581Y265581D01*
X298232Y265146D01*
X299000Y264993D01*
X299768Y265146D01*
X300419Y265581D01*
X300854Y266232D01*
X301007Y267000D01*
X300854Y267768D01*
X300419Y268419D01*
X299768Y268854D01*
X299000Y269007D01*
D02*
G37*
G36*
X363874Y268381D02*
X363106Y268228D01*
X362455Y267793D01*
X362020Y267142D01*
X361867Y266374D01*
X362020Y265606D01*
X362455Y264955D01*
X363106Y264520D01*
X363874Y264367D01*
X364642Y264520D01*
X365293Y264955D01*
X365364Y265061D01*
X374142D01*
X374294Y264561D01*
X374081Y264419D01*
X373646Y263768D01*
X373493Y263000D01*
X373646Y262232D01*
X374081Y261581D01*
X374732Y261146D01*
X375500Y260993D01*
X376268Y261146D01*
X376919Y261581D01*
X377354Y262232D01*
X377507Y263000D01*
X377462Y263229D01*
X377533Y263339D01*
X377895Y263613D01*
X378500Y263493D01*
X379268Y263646D01*
X379919Y264081D01*
X380354Y264732D01*
X380507Y265500D01*
X380354Y266268D01*
X379919Y266919D01*
X379268Y267354D01*
X378500Y267507D01*
X378305Y267468D01*
X378128Y267587D01*
X377626Y267687D01*
X365364D01*
X365293Y267793D01*
X364642Y268228D01*
X363874Y268381D01*
D02*
G37*
G36*
X289000Y269507D02*
X288232Y269354D01*
X287581Y268919D01*
X287146Y268268D01*
X286993Y267500D01*
X287146Y266732D01*
X287426Y266313D01*
X287159Y265813D01*
X280841D01*
X280574Y266313D01*
X280854Y266732D01*
X281007Y267500D01*
X280854Y268268D01*
X280419Y268919D01*
X279768Y269354D01*
X279000Y269507D01*
X278232Y269354D01*
X277581Y268919D01*
X277146Y268268D01*
X276993Y267500D01*
X277146Y266732D01*
X277426Y266313D01*
X277159Y265813D01*
X273544D01*
X270928Y268428D01*
X270502Y268713D01*
X270000Y268813D01*
X269990D01*
X269919Y268919D01*
X269268Y269354D01*
X268500Y269507D01*
X267732Y269354D01*
X267081Y268919D01*
X266646Y268268D01*
X266493Y267500D01*
X266646Y266732D01*
X267081Y266081D01*
X267732Y265646D01*
X268500Y265493D01*
X269268Y265646D01*
X269706Y265938D01*
X272072Y263572D01*
X272498Y263287D01*
X273000Y263187D01*
X291956D01*
X292518Y262626D01*
X292493Y262500D01*
X292646Y261732D01*
X293081Y261081D01*
X293732Y260646D01*
X294500Y260493D01*
X295268Y260646D01*
X295919Y261081D01*
X296354Y261732D01*
X296507Y262500D01*
X296354Y263268D01*
X295919Y263919D01*
X295268Y264354D01*
X294500Y264507D01*
X294374Y264482D01*
X293428Y265428D01*
X293002Y265713D01*
X292500Y265813D01*
X290841D01*
X290574Y266313D01*
X290854Y266732D01*
X291007Y267500D01*
X290854Y268268D01*
X290419Y268919D01*
X289768Y269354D01*
X289000Y269507D01*
D02*
G37*
G36*
X308500D02*
X307732Y269354D01*
X307081Y268919D01*
X306646Y268268D01*
X306493Y267500D01*
X306646Y266732D01*
X307081Y266081D01*
X307732Y265646D01*
X308500Y265493D01*
X309268Y265646D01*
X309919Y266081D01*
X310354Y266732D01*
X310507Y267500D01*
X310354Y268268D01*
X309919Y268919D01*
X309268Y269354D01*
X308500Y269507D01*
D02*
G37*
G36*
X286260Y260933D02*
X285500D01*
Y259232D01*
X287279D01*
Y259913D01*
X287202Y260304D01*
X286981Y260634D01*
X286650Y260855D01*
X286260Y260933D01*
D02*
G37*
G36*
X284500D02*
X283740D01*
X283350Y260855D01*
X283019Y260634D01*
X282798Y260304D01*
X282721Y259913D01*
Y259232D01*
X284500D01*
Y260933D01*
D02*
G37*
G36*
X310319Y264960D02*
X305791D01*
X305484Y264899D01*
X305224Y264725D01*
X305050Y264465D01*
X304989Y264158D01*
Y263281D01*
X304973Y263252D01*
X304488Y262910D01*
X304000Y263007D01*
X303232Y262854D01*
X302581Y262419D01*
X302146Y261768D01*
X301993Y261000D01*
X302146Y260232D01*
X302581Y259581D01*
X303232Y259146D01*
X304000Y258993D01*
X304488Y259090D01*
X304746Y258962D01*
X304988Y258765D01*
X305012Y258723D01*
X305050Y258535D01*
X305224Y258275D01*
X305484Y258101D01*
X305791Y258040D01*
X310319D01*
X310626Y258101D01*
X310887Y258275D01*
X311061Y258535D01*
X311122Y258842D01*
Y264158D01*
X311061Y264465D01*
X310887Y264725D01*
X310626Y264899D01*
X310319Y264960D01*
D02*
G37*
G36*
X352500Y264507D02*
X351732Y264354D01*
X351081Y263919D01*
X350646Y263268D01*
X350493Y262500D01*
X350646Y261732D01*
X351081Y261081D01*
X351732Y260646D01*
X352500Y260493D01*
X353268Y260646D01*
X353919Y261081D01*
X354354Y261732D01*
X354507Y262500D01*
X354354Y263268D01*
X353919Y263919D01*
X353268Y264354D01*
X352500Y264507D01*
D02*
G37*
G36*
X329913Y239779D02*
X329232D01*
Y238000D01*
X330933D01*
Y238760D01*
X330855Y239150D01*
X330634Y239481D01*
X330304Y239702D01*
X329913Y239779D01*
D02*
G37*
G36*
X330933Y237000D02*
X329232D01*
Y235221D01*
X329913D01*
X330304Y235298D01*
X330634Y235519D01*
X330855Y235850D01*
X330933Y236240D01*
Y237000D01*
D02*
G37*
G36*
X349500Y242507D02*
X348732Y242354D01*
X348081Y241919D01*
X347646Y241268D01*
X347493Y240500D01*
X347646Y239732D01*
X348081Y239081D01*
X348732Y238646D01*
X349500Y238493D01*
X350268Y238646D01*
X350919Y239081D01*
X351354Y239732D01*
X351507Y240500D01*
X351354Y241268D01*
X350919Y241919D01*
X350268Y242354D01*
X349500Y242507D01*
D02*
G37*
G36*
X316402Y248507D02*
X313055D01*
X312287Y248354D01*
X311636Y247919D01*
X311201Y247268D01*
X311048Y246500D01*
X311201Y245732D01*
X311636Y245081D01*
X312287Y244646D01*
X313055Y244493D01*
X316402D01*
X317026Y244617D01*
X320018Y241626D01*
X319993Y241500D01*
X320146Y240732D01*
X320581Y240081D01*
X320980Y239814D01*
X320985Y239694D01*
X320858Y239294D01*
X320303Y239184D01*
X319711Y238789D01*
X319711Y238789D01*
X319245Y238322D01*
X317217D01*
X317170Y238354D01*
X316402Y238507D01*
X313055D01*
X312287Y238354D01*
X311902Y238097D01*
X311528Y237959D01*
X311153Y238097D01*
X310768Y238354D01*
X310000Y238507D01*
X309232Y238354D01*
X308581Y237919D01*
X308146Y237268D01*
X307993Y236500D01*
X308146Y235732D01*
X308581Y235081D01*
X309232Y234646D01*
X310000Y234493D01*
X310768Y234646D01*
X311153Y234903D01*
X311528Y235041D01*
X311902Y234903D01*
X312287Y234646D01*
X313055Y234493D01*
X316402D01*
X317170Y234646D01*
X317217Y234678D01*
X320000D01*
X320000Y234678D01*
X320697Y234816D01*
X321289Y235211D01*
X321755Y235678D01*
X323516D01*
X323519Y235672D01*
X323779Y235498D01*
X324087Y235437D01*
X326449D01*
X326756Y235498D01*
X326817Y235539D01*
X326830Y235519D01*
X327161Y235298D01*
X327551Y235221D01*
X328232D01*
Y237500D01*
Y239779D01*
X327873D01*
X327455Y240240D01*
X327507Y240500D01*
X327354Y241268D01*
X326919Y241919D01*
X326268Y242354D01*
X325500Y242507D01*
X324732Y242354D01*
X324392Y242127D01*
X323854Y242268D01*
X323419Y242919D01*
X322768Y243354D01*
X322000Y243507D01*
X321874Y243482D01*
X318298Y247059D01*
X318256Y247268D01*
X317821Y247919D01*
X317170Y248354D01*
X316402Y248507D01*
D02*
G37*
G36*
X351913Y233779D02*
X351232D01*
Y232000D01*
X352933D01*
Y232760D01*
X352855Y233150D01*
X352634Y233481D01*
X352304Y233702D01*
X351913Y233779D01*
D02*
G37*
G36*
X294945Y233507D02*
X291598D01*
X290830Y233354D01*
X290179Y232919D01*
X289744Y232268D01*
X289591Y231500D01*
X289744Y230732D01*
X290179Y230081D01*
X290830Y229646D01*
X291598Y229493D01*
X294945D01*
X295713Y229646D01*
X296364Y230081D01*
X296799Y230732D01*
X296952Y231500D01*
X296799Y232268D01*
X296364Y232919D01*
X295713Y233354D01*
X294945Y233507D01*
D02*
G37*
G36*
Y238507D02*
X291598D01*
X290830Y238354D01*
X290179Y237919D01*
X289744Y237268D01*
X289591Y236500D01*
X289744Y235732D01*
X290179Y235081D01*
X290830Y234646D01*
X291598Y234493D01*
X294945D01*
X295713Y234646D01*
X296364Y235081D01*
X296799Y235732D01*
X296952Y236500D01*
X296799Y237268D01*
X296364Y237919D01*
X295713Y238354D01*
X294945Y238507D01*
D02*
G37*
G36*
X350232Y233779D02*
X349551D01*
X349161Y233702D01*
X348830Y233481D01*
X348817Y233461D01*
X348756Y233502D01*
X348449Y233563D01*
X346087D01*
X345779Y233502D01*
X345519Y233328D01*
X345345Y233067D01*
X345294Y232813D01*
X344500D01*
X343998Y232713D01*
X343572Y232428D01*
X342956Y231813D01*
X330500D01*
X329998Y231713D01*
X329572Y231428D01*
X327072Y228928D01*
X326787Y228502D01*
X326687Y228000D01*
Y225044D01*
X324456Y222813D01*
X317892D01*
X317821Y222919D01*
X317170Y223354D01*
X316402Y223507D01*
X313055D01*
X312287Y223354D01*
X311636Y222919D01*
X311201Y222268D01*
X311048Y221500D01*
X311201Y220732D01*
X311636Y220081D01*
X312287Y219646D01*
X313055Y219493D01*
X316402D01*
X317170Y219646D01*
X317821Y220081D01*
X317892Y220187D01*
X325000D01*
X325502Y220287D01*
X325928Y220572D01*
X327139Y221782D01*
X327600Y221536D01*
X327493Y221000D01*
X327646Y220232D01*
X328081Y219581D01*
X328732Y219146D01*
X329500Y218993D01*
X330268Y219146D01*
X330284Y219156D01*
X330784Y218889D01*
Y217813D01*
X317892D01*
X317821Y217919D01*
X317170Y218354D01*
X316402Y218507D01*
X313055D01*
X312287Y218354D01*
X311636Y217919D01*
X311201Y217268D01*
X311048Y216500D01*
X311201Y215732D01*
X311636Y215081D01*
X312287Y214646D01*
X313055Y214493D01*
X316402D01*
X317170Y214646D01*
X317821Y215081D01*
X317892Y215187D01*
X330784D01*
Y213913D01*
X330709Y213822D01*
X322000D01*
X322000Y213822D01*
X322000Y213822D01*
X308653D01*
X308507Y214000D01*
X308354Y214768D01*
X307919Y215419D01*
X307268Y215854D01*
X306500Y216007D01*
X305732Y215854D01*
X305081Y215419D01*
X304646Y214768D01*
X304578Y214428D01*
X304427Y214323D01*
X303927Y214584D01*
Y224996D01*
X305714Y226784D01*
X309465D01*
X310609Y225640D01*
X311003Y225376D01*
X311469Y225284D01*
X311500D01*
X311636Y225081D01*
X312287Y224646D01*
X313055Y224493D01*
X316402D01*
X317170Y224646D01*
X317821Y225081D01*
X318256Y225732D01*
X318409Y226500D01*
X318256Y227268D01*
X317821Y227919D01*
X317170Y228354D01*
X316402Y228507D01*
X313055D01*
X312287Y228354D01*
X311716Y227973D01*
X310828Y228860D01*
X310804Y229115D01*
X311716Y230027D01*
X312287Y229646D01*
X313055Y229493D01*
X316402D01*
X317170Y229646D01*
X317821Y230081D01*
X318256Y230732D01*
X318409Y231500D01*
X318256Y232268D01*
X317821Y232919D01*
X317170Y233354D01*
X316402Y233507D01*
X313055D01*
X312287Y233354D01*
X311636Y232919D01*
X311500Y232716D01*
X311469D01*
X311003Y232624D01*
X310609Y232360D01*
X308776Y230527D01*
X304668D01*
X304202Y230435D01*
X303807Y230171D01*
X300540Y226903D01*
X300276Y226508D01*
X300183Y226043D01*
Y211730D01*
X299916Y211462D01*
X299652Y211068D01*
X299131Y210974D01*
X299004Y211000D01*
X297429D01*
X297132Y210941D01*
X296835Y211139D01*
X296445Y211216D01*
X296158D01*
Y207539D01*
Y203862D01*
X296445D01*
X296835Y203940D01*
X297132Y204138D01*
X297429Y204079D01*
X299004D01*
X299311Y204140D01*
X299496Y204264D01*
X299681Y204140D01*
X299988Y204079D01*
X301563D01*
X301870Y204140D01*
X302055Y204264D01*
X302240Y204140D01*
X302547Y204079D01*
X304122D01*
X304429Y204140D01*
X304614Y204264D01*
X304799Y204140D01*
X305106Y204079D01*
X306681D01*
X306988Y204140D01*
X307249Y204314D01*
X307327Y204431D01*
X307827Y204279D01*
Y203898D01*
X307905Y203507D01*
X308125Y203177D01*
X308456Y202956D01*
X308846Y202878D01*
X312480D01*
Y207047D01*
X312980D01*
Y207547D01*
X318134D01*
Y210178D01*
X321245D01*
X322937Y208485D01*
Y207551D01*
X322998Y207244D01*
X323039Y207183D01*
X323019Y207170D01*
X322798Y206839D01*
X322721Y206449D01*
Y205768D01*
X327279D01*
Y206449D01*
X327202Y206839D01*
X326981Y207170D01*
X326961Y207183D01*
X327002Y207244D01*
X327063Y207551D01*
Y209913D01*
X327279Y210178D01*
X328055D01*
X328441Y209709D01*
Y204591D01*
X328502Y204283D01*
X328579Y204168D01*
X328523Y204130D01*
X328302Y203800D01*
X328224Y203409D01*
Y201350D01*
X335775D01*
Y203409D01*
X335698Y203800D01*
X335477Y204130D01*
X335421Y204168D01*
X335498Y204283D01*
X335559Y204591D01*
Y209709D01*
X335498Y210016D01*
X335324Y210276D01*
X335063Y210450D01*
X334756Y210511D01*
X333822D01*
Y211000D01*
X333684Y211697D01*
X333289Y212289D01*
X333289Y212289D01*
X332929Y212649D01*
X333120Y213111D01*
X336114D01*
X336421Y213172D01*
X336682Y213346D01*
X336715Y213395D01*
X337285D01*
X337318Y213346D01*
X337579Y213172D01*
X337886Y213111D01*
X340215D01*
X340367Y212611D01*
X340081Y212419D01*
X339646Y211768D01*
X339493Y211000D01*
X339646Y210232D01*
X340081Y209581D01*
X340732Y209146D01*
X341500Y208993D01*
X342268Y209146D01*
X342919Y209581D01*
X343354Y210232D01*
X343507Y211000D01*
X343354Y211768D01*
X342919Y212419D01*
X342594Y212637D01*
X342699Y213168D01*
X342721Y213172D01*
X342981Y213346D01*
X343155Y213606D01*
X343216Y213913D01*
Y219425D01*
X343431Y219687D01*
X345294D01*
X345345Y219433D01*
X345519Y219173D01*
X345779Y218998D01*
X346087Y218937D01*
X348449D01*
X348756Y218998D01*
X348817Y219039D01*
X348830Y219019D01*
X349161Y218798D01*
X349551Y218721D01*
X350232D01*
Y221000D01*
Y223279D01*
X349551D01*
X349161Y223202D01*
X348830Y222981D01*
X348817Y222961D01*
X348756Y223002D01*
X348449Y223063D01*
X346087D01*
X345779Y223002D01*
X345519Y222828D01*
X345345Y222567D01*
X345294Y222313D01*
X343431D01*
X343216Y222575D01*
Y223795D01*
X343716Y223990D01*
X344232Y223646D01*
X345000Y223493D01*
X345768Y223646D01*
X346419Y224081D01*
X346854Y224732D01*
X347007Y225500D01*
X346936Y225856D01*
X347361Y226281D01*
X347446Y226265D01*
X348214Y226417D01*
X348866Y226852D01*
X349301Y227504D01*
X349453Y228272D01*
X349358Y228749D01*
X349408Y228870D01*
X349735Y229220D01*
X349736Y229221D01*
X350232D01*
Y231500D01*
Y233779D01*
D02*
G37*
G36*
X294945Y248507D02*
X291598D01*
X290830Y248354D01*
X290179Y247919D01*
X289744Y247268D01*
X289591Y246500D01*
X289744Y245732D01*
X290179Y245081D01*
X290830Y244646D01*
X291598Y244493D01*
X294945D01*
X295713Y244646D01*
X296364Y245081D01*
X296799Y245732D01*
X296952Y246500D01*
X296799Y247268D01*
X296364Y247919D01*
X295713Y248354D01*
X294945Y248507D01*
D02*
G37*
G36*
X267500Y251320D02*
X266511Y251190D01*
X265590Y250808D01*
X264799Y250201D01*
X264192Y249410D01*
X263810Y248489D01*
X263680Y247500D01*
X263810Y246511D01*
X264192Y245590D01*
X264799Y244799D01*
X265590Y244192D01*
X266511Y243810D01*
X267500Y243680D01*
X268489Y243810D01*
X269410Y244192D01*
X270201Y244799D01*
X270808Y245590D01*
X271190Y246511D01*
X271320Y247500D01*
X271190Y248489D01*
X270808Y249410D01*
X270201Y250201D01*
X269410Y250808D01*
X268489Y251190D01*
X267500Y251320D01*
D02*
G37*
G36*
X300000Y253007D02*
X299232Y252854D01*
X298581Y252419D01*
X298146Y251768D01*
X297993Y251000D01*
X298146Y250232D01*
X298581Y249581D01*
X299232Y249146D01*
X300000Y248993D01*
X300768Y249146D01*
X301419Y249581D01*
X301854Y250232D01*
X302007Y251000D01*
X301854Y251768D01*
X301419Y252419D01*
X300768Y252854D01*
X300000Y253007D01*
D02*
G37*
G36*
X340500Y251007D02*
X339732Y250854D01*
X339081Y250419D01*
X338646Y249768D01*
X338493Y249000D01*
X338646Y248232D01*
X339081Y247581D01*
X339732Y247146D01*
X340500Y246993D01*
X341268Y247146D01*
X341919Y247581D01*
X342354Y248232D01*
X342507Y249000D01*
X342354Y249768D01*
X341919Y250419D01*
X341268Y250854D01*
X340500Y251007D01*
D02*
G37*
G36*
X309500Y243757D02*
X308732Y243604D01*
X308081Y243169D01*
X307646Y242518D01*
X307493Y241750D01*
X307646Y240982D01*
X308081Y240331D01*
X308732Y239896D01*
X309500Y239743D01*
X310268Y239896D01*
X310919Y240331D01*
X310941Y240364D01*
X311447D01*
X311636Y240081D01*
X312287Y239646D01*
X313055Y239493D01*
X316402D01*
X317170Y239646D01*
X317821Y240081D01*
X318256Y240732D01*
X318409Y241500D01*
X318256Y242268D01*
X317821Y242919D01*
X317170Y243354D01*
X316402Y243507D01*
X313055D01*
X312287Y243354D01*
X311851Y243063D01*
X310990D01*
X310919Y243169D01*
X310268Y243604D01*
X309500Y243757D01*
D02*
G37*
G36*
X294945Y243507D02*
X291598D01*
X290830Y243354D01*
X290179Y242919D01*
X289744Y242268D01*
X289591Y241500D01*
X289744Y240732D01*
X290179Y240081D01*
X290830Y239646D01*
X291598Y239493D01*
X294945D01*
X295713Y239646D01*
X296364Y240081D01*
X296799Y240732D01*
X296952Y241500D01*
X296799Y242268D01*
X296364Y242919D01*
X295713Y243354D01*
X294945Y243507D01*
D02*
G37*
G36*
X352000Y251007D02*
X351232Y250854D01*
X350581Y250419D01*
X350146Y249768D01*
X349993Y249000D01*
X350146Y248232D01*
X350581Y247581D01*
X351232Y247146D01*
X351597Y247073D01*
X351997Y246521D01*
X351993Y246500D01*
X352146Y245732D01*
X352581Y245081D01*
X353232Y244646D01*
X354000Y244493D01*
X354146Y244522D01*
X354498Y244287D01*
X355000Y244187D01*
X366510D01*
X366581Y244081D01*
X367232Y243646D01*
X368000Y243493D01*
X368768Y243646D01*
X369419Y244081D01*
X369854Y244732D01*
X370007Y245500D01*
X369854Y246268D01*
X369419Y246919D01*
X368768Y247354D01*
X368000Y247507D01*
X367232Y247354D01*
X366581Y246919D01*
X366510Y246813D01*
X355945D01*
X355854Y247268D01*
X355419Y247919D01*
X354768Y248354D01*
X354403Y248427D01*
X354003Y248979D01*
X354007Y249000D01*
X353854Y249768D01*
X353419Y250419D01*
X352768Y250854D01*
X352000Y251007D01*
D02*
G37*
G36*
X285299Y243507D02*
X284531Y243354D01*
X284483Y243322D01*
X282000D01*
X282000Y243322D01*
X281303Y243184D01*
X280711Y242789D01*
X280711Y242789D01*
X274711Y236789D01*
X274316Y236197D01*
X274178Y235500D01*
X274178Y235500D01*
Y217385D01*
X268576Y211784D01*
X268489Y211820D01*
X267500Y211950D01*
X266511Y211820D01*
X265590Y211438D01*
X264799Y210831D01*
X264192Y210040D01*
X263810Y209119D01*
X263680Y208130D01*
X263810Y207141D01*
X264192Y206220D01*
X264799Y205429D01*
X265590Y204822D01*
X266511Y204440D01*
X267500Y204310D01*
X268489Y204440D01*
X269410Y204822D01*
X270201Y205429D01*
X270808Y206220D01*
X271190Y207141D01*
X271320Y208130D01*
X271190Y209119D01*
X271154Y209206D01*
X277289Y215341D01*
X277289Y215341D01*
X277684Y215932D01*
X277822Y216630D01*
X277822Y216630D01*
Y234745D01*
X282755Y239678D01*
X284483D01*
X284531Y239646D01*
X285299Y239493D01*
X286067Y239646D01*
X286718Y240081D01*
X287154Y240732D01*
X287306Y241500D01*
X287154Y242268D01*
X286718Y242919D01*
X286067Y243354D01*
X285299Y243507D01*
D02*
G37*
%LPD*%
D18*
X267500Y247500D02*
D03*
Y227815D02*
D03*
Y208130D02*
D03*
D21*
X325000Y208732D02*
D03*
Y205268D02*
D03*
X285000Y255268D02*
D03*
Y258732D02*
D03*
D22*
X347268Y231500D02*
D03*
X350732D02*
D03*
X347268Y221000D02*
D03*
X350732D02*
D03*
X325268Y237500D02*
D03*
X328732D02*
D03*
D28*
X332000Y207150D02*
D03*
Y200850D02*
D03*
D30*
X377626Y266374D02*
X378500Y265500D01*
X363874Y266374D02*
X377626D01*
X355000Y245500D02*
X368000D01*
X354000Y246500D02*
X355000Y245500D01*
X367500Y211000D02*
X372500Y216000D01*
X340150Y225331D02*
Y227150D01*
X344500Y231500D02*
X347268D01*
X333850Y216669D02*
Y218350D01*
X336500Y221000D01*
X347268D01*
X314728Y216500D02*
X333681D01*
X333850Y216669D01*
X314728Y221500D02*
X325000D01*
X330500Y230500D02*
X343500D01*
X340150Y227150D02*
X343500Y230500D01*
X344500Y231500D01*
X307555Y261000D02*
X308055Y261500D01*
X325000Y208732D02*
Y209000D01*
X314500Y261055D02*
X314945Y261500D01*
X363611Y211181D02*
X363792Y211000D01*
X367500D01*
X349681Y211181D02*
X363611D01*
X362319Y208681D02*
X362500Y208500D01*
X350181Y208681D02*
X362319D01*
X345000Y206500D02*
X349681Y211181D01*
X345000Y205000D02*
Y206500D01*
X347681Y206181D02*
X350181Y208681D01*
X347681Y203889D02*
Y206181D01*
X345792Y202000D02*
X347681Y203889D01*
X341500Y202000D02*
X345792D01*
X292500Y264500D02*
X294500Y262500D01*
X273000Y264500D02*
X292500D01*
X270000Y267500D02*
X273000Y264500D01*
X268500Y267500D02*
X270000D01*
X310000Y236500D02*
X314728D01*
Y246500D02*
X317000D01*
X322000Y241500D01*
X328000Y228000D02*
X330500Y230500D01*
X325000Y221500D02*
X328000Y224500D01*
Y228000D01*
X325268Y240268D02*
X325500Y240500D01*
X305894Y211394D02*
X306500Y212000D01*
X314478Y241750D02*
X314728Y241500D01*
X309500Y241750D02*
X314478D01*
D34*
X267500Y208130D02*
X276000Y216630D01*
Y235500D01*
X282000Y241500D01*
X285299D01*
X304000Y261000D02*
X307555D01*
X314728Y236500D02*
X320000D01*
X321000Y237500D01*
X325268D01*
X331000Y212000D02*
X332000Y211000D01*
Y207150D02*
Y211000D01*
X322000Y212000D02*
X325000Y209000D01*
X322000Y212000D02*
X331000D01*
X314500Y256500D02*
Y261055D01*
X325268Y237500D02*
Y240268D01*
X285000Y251500D02*
Y255268D01*
X306500Y212000D02*
X322000D01*
D35*
X378500Y265500D02*
D03*
X363874Y266374D02*
D03*
X365000Y203500D02*
D03*
X368000Y205500D02*
D03*
X375000Y202500D02*
D03*
X289000Y267500D02*
D03*
X279000D02*
D03*
X371000Y203500D02*
D03*
X352000Y249000D02*
D03*
X345500Y259000D02*
D03*
X348000Y253500D02*
D03*
X352500Y262500D02*
D03*
X368000Y245500D02*
D03*
X354000Y246500D02*
D03*
X372500Y216000D02*
D03*
X299000Y267000D02*
D03*
X300000Y251000D02*
D03*
X285299Y241500D02*
D03*
X304000Y261000D02*
D03*
X306500Y214000D02*
D03*
X314500Y256500D02*
D03*
X362500Y208500D02*
D03*
X345000Y205000D02*
D03*
X350500D02*
D03*
X356000Y206000D02*
D03*
X353500Y203000D02*
D03*
X359000Y203500D02*
D03*
X341500Y202000D02*
D03*
X268500Y267500D02*
D03*
X294500Y262500D02*
D03*
X375500Y263000D02*
D03*
X323500Y228000D02*
D03*
X310000Y236500D02*
D03*
X308500Y267500D02*
D03*
X285000Y251500D02*
D03*
X274500Y197500D02*
D03*
X338000Y209500D02*
D03*
X372000Y207500D02*
D03*
X362000Y205000D02*
D03*
X339000Y242500D02*
D03*
X320500Y249000D02*
D03*
X282000Y261500D02*
D03*
X349500Y240500D02*
D03*
X340500Y249000D02*
D03*
X344000Y250500D02*
D03*
X322000Y241500D02*
D03*
X329500Y221000D02*
D03*
X341500Y211000D02*
D03*
X377500Y193500D02*
D03*
X347446Y228272D02*
D03*
X345000Y225500D02*
D03*
X325500Y240500D02*
D03*
X309500Y241750D02*
D03*
X390000Y236000D02*
D03*
X399500D02*
D03*
X384500Y257500D02*
D03*
X392500D02*
D03*
X400000Y268500D02*
D03*
Y261000D02*
D03*
X399500Y227000D02*
D03*
Y217000D02*
D03*
Y207000D02*
D03*
Y196500D02*
D03*
X318000Y267500D02*
D03*
X340000Y266500D02*
D03*
X384000Y207500D02*
D03*
X335000Y249000D02*
D03*
X329500Y267500D02*
D03*
X376000Y258000D02*
D03*
D36*
X362102Y253071D02*
D03*
X357772D02*
D03*
X362102Y257402D02*
D03*
X357772D02*
D03*
D37*
X312980Y207047D02*
D03*
X288571D02*
D03*
D38*
X298217Y207539D02*
D03*
X303335D02*
D03*
X305894D02*
D03*
X295657D02*
D03*
X300776D02*
D03*
D39*
X315539Y197500D02*
D03*
X305500D02*
D03*
X296051D02*
D03*
X286012D02*
D03*
D40*
X293272Y216500D02*
D03*
Y221500D02*
D03*
Y226500D02*
D03*
Y231500D02*
D03*
Y236500D02*
D03*
Y241500D02*
D03*
Y246500D02*
D03*
Y251500D02*
D03*
X314728Y216500D02*
D03*
Y221500D02*
D03*
Y226500D02*
D03*
Y231500D02*
D03*
Y236500D02*
D03*
Y241500D02*
D03*
Y246500D02*
D03*
Y251500D02*
D03*
D41*
X333850Y216669D02*
D03*
X340150D02*
D03*
X333850Y225331D02*
D03*
X340150D02*
D03*
D42*
X308055Y261500D02*
D03*
X314945D02*
D03*
D43*
X300776Y207539D02*
Y210602D01*
X301400Y211226D01*
X303335Y207539D02*
Y210602D01*
X302711Y211226D02*
X303335Y210602D01*
X302711Y211226D02*
Y225500D01*
X305211Y228000D01*
X309968D01*
X301400Y211226D02*
Y226043D01*
X304668Y229311D01*
X309279D01*
X309968Y228000D02*
X311469Y226500D01*
X314728D01*
X309279Y229311D02*
X311469Y231500D01*
X314728D01*
D44*
X285000Y251500D02*
X293272D01*
D45*
X305894Y213394D02*
X306500Y214000D01*
X305894Y207539D02*
Y211394D01*
Y213394D01*
M02*
