%FSLAX25Y25*%
%MOIN*%
G70*
G01*
G75*
%ADD10R,0.02953X0.02362*%
%ADD11R,0.05512X0.04528*%
%ADD12O,0.01575X0.05315*%
%ADD13R,0.09842X0.09842*%
%ADD14O,0.01181X0.02874*%
%ADD15O,0.02874X0.01181*%
%ADD16R,0.12992X0.06299*%
%ADD17R,0.04724X0.06299*%
%ADD18C,0.06000*%
%ADD19R,0.02362X0.02953*%
%ADD20R,0.03150X0.03543*%
%ADD21R,0.02520X0.02362*%
%ADD22R,0.02362X0.02520*%
%ADD23R,0.05984X0.07008*%
%ADD24R,0.03543X0.03740*%
%ADD25R,0.03740X0.03543*%
%ADD26R,0.03543X0.03937*%
%ADD27R,0.05118X0.05512*%
%ADD28R,0.05512X0.05118*%
%ADD29R,0.05315X0.04528*%
%ADD30C,0.01000*%
%ADD31C,0.05000*%
%ADD32C,0.02362*%
%ADD33C,0.00787*%
%ADD34C,0.02000*%
%ADD35C,0.02362*%
%ADD36C,0.01968*%
G36*
X402500Y248653D02*
X402038Y248462D01*
X395264Y255236D01*
X381281D01*
X381034Y255736D01*
X381123Y255870D01*
X381201Y256260D01*
Y257236D01*
X379000D01*
Y258236D01*
X381201D01*
Y259213D01*
X381123Y259603D01*
X381000Y259787D01*
X380749Y260220D01*
X380923Y260480D01*
X380984Y260787D01*
Y263740D01*
X380923Y264047D01*
X380749Y264308D01*
X380676Y264357D01*
X380471Y264596D01*
X380409Y265007D01*
X380507Y265500D01*
X380354Y266268D01*
X379919Y266919D01*
X379268Y267354D01*
X378500Y267507D01*
X377732Y267354D01*
X377081Y266919D01*
X376646Y266268D01*
X376493Y265500D01*
X376538Y265271D01*
X376467Y265161D01*
X376105Y264887D01*
X375500Y265007D01*
X374891Y264886D01*
X374828Y264981D01*
X374567Y265155D01*
X374260Y265216D01*
X372872D01*
X368105Y269983D01*
X368086Y269997D01*
X368237Y270497D01*
X402500D01*
Y248653D01*
D02*
G37*
G36*
X369876Y243865D02*
X370072Y243572D01*
X374304Y239340D01*
X374730Y239055D01*
X375232Y238955D01*
X379464D01*
X379498Y238779D01*
X379673Y238519D01*
X379933Y238345D01*
X380240Y238284D01*
X380455D01*
Y237036D01*
X380279Y237002D01*
X380019Y236827D01*
X379845Y236567D01*
X379784Y236260D01*
Y233740D01*
X379845Y233433D01*
X380019Y233172D01*
X380279Y232998D01*
X380455Y232963D01*
Y232036D01*
X380279Y232002D01*
X380019Y231827D01*
X379845Y231567D01*
X379784Y231260D01*
Y228740D01*
X379845Y228433D01*
X380019Y228172D01*
X380279Y227998D01*
X380587Y227937D01*
X382949D01*
X383256Y227998D01*
X383317Y228039D01*
X383330Y228019D01*
X383661Y227798D01*
X384051Y227721D01*
X384732D01*
Y230000D01*
X385232D01*
Y230500D01*
X387433D01*
Y231260D01*
X387355Y231650D01*
X387134Y231981D01*
X386804Y232202D01*
X386586Y232245D01*
Y232755D01*
X386804Y232798D01*
X387134Y233019D01*
X387355Y233350D01*
X387433Y233740D01*
Y234500D01*
X385232D01*
Y235000D01*
X384732D01*
Y237279D01*
X384051D01*
X383661Y237202D01*
X383580Y237148D01*
X383080Y237415D01*
Y238354D01*
X402500D01*
Y191004D01*
X377603D01*
X377553Y191504D01*
X378268Y191646D01*
X378919Y192081D01*
X379354Y192732D01*
X379420Y193064D01*
X380779Y194422D01*
X381063Y194848D01*
X381163Y195350D01*
Y196941D01*
X382410D01*
X382717Y197002D01*
X382832Y197079D01*
X382870Y197023D01*
X383200Y196802D01*
X383591Y196724D01*
X385650D01*
Y200500D01*
Y204275D01*
X383591D01*
X383200Y204198D01*
X382870Y203977D01*
X382832Y203921D01*
X382717Y203998D01*
X382410Y204059D01*
X377291D01*
X376984Y203998D01*
X376724Y203824D01*
X376258Y204027D01*
X375768Y204354D01*
X375000Y204507D01*
X374232Y204354D01*
X373581Y203919D01*
X373467Y203749D01*
X372937Y203855D01*
X372854Y204268D01*
X372419Y204919D01*
X371768Y205354D01*
X371000Y205507D01*
X370497Y205407D01*
X370153Y205472D01*
X369953Y205770D01*
X369854Y206268D01*
X369419Y206919D01*
X368768Y207354D01*
X368505Y207406D01*
X368341Y207949D01*
X369811Y209420D01*
X376085D01*
X376352Y208920D01*
X376298Y208839D01*
X376221Y208449D01*
Y207768D01*
X380779D01*
Y208449D01*
X380702Y208839D01*
X380481Y209170D01*
X380461Y209183D01*
X380502Y209244D01*
X380563Y209551D01*
Y211913D01*
X380502Y212221D01*
X380328Y212481D01*
X380067Y212655D01*
X379760Y212716D01*
X377240D01*
X376933Y212655D01*
X376673Y212481D01*
X376498Y212221D01*
X376464Y212045D01*
X369811D01*
X366651Y215205D01*
Y217286D01*
X367151Y217554D01*
X367283Y217465D01*
X367898Y217343D01*
X368512Y217465D01*
X369033Y217813D01*
X369321D01*
X369842Y217465D01*
X370457Y217343D01*
X370725Y216887D01*
X370646Y216768D01*
X370493Y216000D01*
X370646Y215232D01*
X371081Y214581D01*
X371732Y214146D01*
X372500Y213993D01*
X373268Y214146D01*
X373919Y214581D01*
X374354Y215232D01*
X374507Y216000D01*
X374354Y216768D01*
X374328Y216807D01*
Y218079D01*
X374499Y218334D01*
X374621Y218949D01*
Y222689D01*
X374499Y223303D01*
X374151Y223824D01*
X373630Y224172D01*
X373016Y224295D01*
X372401Y224172D01*
X371880Y223824D01*
X371592D01*
X371071Y224172D01*
X370457Y224295D01*
X369842Y224172D01*
X369321Y223824D01*
X369033D01*
X368512Y224172D01*
X367898Y224295D01*
X367283Y224172D01*
X366762Y223824D01*
X366474D01*
X365953Y224172D01*
X365339Y224295D01*
X364724Y224172D01*
X364203Y223824D01*
X363915D01*
X363394Y224172D01*
X362779Y224295D01*
X362165Y224172D01*
X361644Y223824D01*
X361356D01*
X360835Y224172D01*
X360221Y224295D01*
X359606Y224172D01*
X359085Y223824D01*
X358797D01*
X358276Y224172D01*
X357661Y224295D01*
X357047Y224172D01*
X356891Y224068D01*
X356335Y224298D01*
X356315Y224400D01*
X356031Y224826D01*
X354988Y225868D01*
X355246Y226317D01*
X355413Y226284D01*
X360925D01*
X361232Y226345D01*
X361493Y226519D01*
X361667Y226779D01*
X361728Y227087D01*
Y230372D01*
X362772Y231416D01*
X363272Y231209D01*
Y227087D01*
X363333Y226779D01*
X363507Y226519D01*
X363768Y226345D01*
X364075Y226284D01*
X369587D01*
X369894Y226345D01*
X370154Y226519D01*
X370328Y226779D01*
X370389Y227087D01*
Y231614D01*
X370328Y231921D01*
X370154Y232182D01*
X370105Y232215D01*
Y232785D01*
X370154Y232818D01*
X370328Y233079D01*
X370389Y233386D01*
Y234337D01*
X372437D01*
Y234051D01*
X372498Y233744D01*
X372539Y233683D01*
X372519Y233670D01*
X372298Y233339D01*
X372221Y232949D01*
Y232268D01*
X374500D01*
X376779D01*
Y232949D01*
X376702Y233339D01*
X376481Y233670D01*
X376461Y233683D01*
X376502Y233744D01*
X376563Y234051D01*
Y236413D01*
X376502Y236721D01*
X376327Y236981D01*
X376067Y237155D01*
X375760Y237216D01*
X373240D01*
X372933Y237155D01*
X372673Y236981D01*
X372660Y236962D01*
X370389D01*
Y237913D01*
X370328Y238221D01*
X370154Y238481D01*
X369894Y238655D01*
X369587Y238716D01*
X368143D01*
Y239669D01*
X368043Y240172D01*
X367759Y240598D01*
X367427Y240929D01*
X367482Y241012D01*
X367543Y241319D01*
Y243190D01*
X367930Y243507D01*
X368000Y243493D01*
X368768Y243646D01*
X369280Y243987D01*
X369603Y243994D01*
X369876Y243865D01*
D02*
G37*
G36*
X361855Y269997D02*
X361835Y269983D01*
X359009Y267157D01*
X358768Y266796D01*
X358256Y266600D01*
X357428Y267428D01*
X357002Y267713D01*
X356500Y267813D01*
X348706D01*
X348655Y268067D01*
X348481Y268327D01*
X348221Y268502D01*
X347913Y268563D01*
X345551D01*
X345244Y268502D01*
X345183Y268461D01*
X345170Y268481D01*
X344839Y268702D01*
X344449Y268779D01*
X343768D01*
Y266500D01*
Y264221D01*
X344449D01*
X344839Y264298D01*
X345170Y264519D01*
X345183Y264539D01*
X345244Y264498D01*
X345551Y264437D01*
X347913D01*
X348221Y264498D01*
X348481Y264672D01*
X348655Y264933D01*
X348706Y265187D01*
X354400D01*
X354667Y264687D01*
X354502Y264440D01*
X354426Y264060D01*
X353919Y263919D01*
X353268Y264354D01*
X352500Y264507D01*
X351732Y264354D01*
X351081Y263919D01*
X350646Y263268D01*
X350493Y262500D01*
X350646Y261732D01*
X350888Y261369D01*
Y260485D01*
X350817Y260471D01*
X350361Y260167D01*
X350056Y259711D01*
X349968Y259268D01*
X349903Y259281D01*
X347451D01*
X347354Y259768D01*
X346919Y260419D01*
X346268Y260854D01*
X345500Y261007D01*
X344732Y260854D01*
X344081Y260419D01*
X343646Y259768D01*
X343493Y259000D01*
X343646Y258232D01*
X343805Y257994D01*
X343753Y257784D01*
X343554Y257469D01*
X343179Y257394D01*
X342753Y257109D01*
X339572Y253928D01*
X339287Y253502D01*
X339187Y253000D01*
Y250490D01*
X339081Y250419D01*
X338646Y249768D01*
X338493Y249000D01*
X338646Y248232D01*
X339081Y247581D01*
X339732Y247146D01*
X340500Y246993D01*
X341268Y247146D01*
X341919Y247581D01*
X342354Y248232D01*
X342507Y249000D01*
X342354Y249768D01*
X341919Y250419D01*
X341813Y250490D01*
Y252456D01*
X344225Y254869D01*
X346017D01*
X346252Y254428D01*
X346146Y254268D01*
X345993Y253500D01*
X346106Y252933D01*
X345790Y252433D01*
X345740D01*
X345350Y252355D01*
X345019Y252134D01*
X344798Y251804D01*
X344721Y251413D01*
Y250732D01*
X347000D01*
Y249732D01*
X344721D01*
Y249051D01*
X344798Y248661D01*
X345019Y248330D01*
X345039Y248317D01*
X344998Y248256D01*
X344937Y247949D01*
Y245728D01*
X344500D01*
Y242150D01*
X344000D01*
Y241650D01*
X340225D01*
Y239591D01*
X340302Y239200D01*
X340523Y238870D01*
X340579Y238832D01*
X340502Y238717D01*
X340441Y238409D01*
Y234148D01*
X340007Y233714D01*
X338720D01*
Y235551D01*
X338659Y235858D01*
X338485Y236119D01*
X338225Y236293D01*
X337917Y236354D01*
X336868D01*
Y240945D01*
X336768Y241447D01*
X336483Y241873D01*
X331928Y246428D01*
X331502Y246713D01*
X331000Y246813D01*
X317544D01*
X308960Y255396D01*
Y257209D01*
X308899Y257516D01*
X308725Y257776D01*
X308465Y257950D01*
X308157Y258012D01*
X305011D01*
X304300Y258722D01*
X304712Y259135D01*
X304768Y259146D01*
X305419Y259581D01*
X305854Y260232D01*
X306007Y261000D01*
X305854Y261768D01*
X305419Y262419D01*
X304768Y262854D01*
X304000Y263007D01*
X303232Y262854D01*
X302581Y262419D01*
X302146Y261768D01*
X302134Y261712D01*
X300745Y260322D01*
X300232D01*
Y260469D01*
X300171Y260776D01*
X299997Y261036D01*
X299736Y261210D01*
X299429Y261271D01*
X296577D01*
X296373Y261653D01*
X296362Y261771D01*
X296507Y262500D01*
X296354Y263268D01*
X295919Y263919D01*
X295268Y264354D01*
X294500Y264507D01*
X293732Y264354D01*
X293081Y263919D01*
X292646Y263268D01*
X292493Y262500D01*
X292595Y261988D01*
X292253Y261488D01*
X290571D01*
X290181Y261410D01*
X289850Y261190D01*
X289629Y260859D01*
X289551Y260469D01*
Y259000D01*
X292342D01*
Y258500D01*
X292843D01*
Y255512D01*
X294114D01*
X294504Y255590D01*
X294824Y255803D01*
X294839Y255812D01*
X295318Y255964D01*
X295579Y255790D01*
X295886Y255729D01*
X299429D01*
X299736Y255790D01*
X299997Y255964D01*
X300171Y256224D01*
X300232Y256532D01*
Y256678D01*
X301190D01*
X302040Y255828D01*
Y252681D01*
X302101Y252374D01*
X302275Y252113D01*
X302535Y251939D01*
X302842Y251878D01*
X308157D01*
X308465Y251939D01*
X308608Y252035D01*
X316072Y244572D01*
X316498Y244287D01*
X317000Y244187D01*
X330456D01*
X334243Y240401D01*
Y236354D01*
X333193D01*
X332886Y236293D01*
X332625Y236119D01*
X332451Y235858D01*
X332390Y235551D01*
Y229252D01*
X332451Y228945D01*
X332625Y228684D01*
X332886Y228510D01*
X333193Y228449D01*
X337917D01*
X338225Y228510D01*
X338485Y228684D01*
X338659Y228945D01*
X338720Y229252D01*
Y231089D01*
X340551D01*
X341054Y231189D01*
X341479Y231473D01*
X342494Y232488D01*
X346756D01*
X347063Y232550D01*
X347324Y232724D01*
X347498Y232984D01*
X347559Y233291D01*
Y238409D01*
X347539Y238508D01*
X347726Y238833D01*
X348273Y238952D01*
X348558Y238762D01*
X348610Y238242D01*
X348592Y238183D01*
X348519Y238134D01*
X348298Y237804D01*
X348221Y237413D01*
Y236732D01*
X352779D01*
Y237413D01*
X352702Y237804D01*
X352481Y238134D01*
X352150Y238355D01*
X351760Y238433D01*
X350850D01*
X350698Y238933D01*
X350919Y239081D01*
X351354Y239732D01*
X351507Y240500D01*
X351354Y241268D01*
X350919Y241919D01*
X350813Y241990D01*
Y242506D01*
X355821D01*
X356324Y242606D01*
X356749Y242891D01*
X357940Y244081D01*
X358487Y243972D01*
X358509Y243944D01*
X358457Y243681D01*
Y241319D01*
X358518Y241012D01*
X358692Y240751D01*
X358953Y240577D01*
X359260Y240516D01*
X359424D01*
Y239923D01*
X359524Y239421D01*
X359660Y239216D01*
X359394Y238716D01*
X355413D01*
X355106Y238655D01*
X354846Y238481D01*
X354672Y238221D01*
X354611Y237913D01*
Y233386D01*
X354672Y233079D01*
X354846Y232818D01*
X354895Y232785D01*
Y232215D01*
X354846Y232182D01*
X354672Y231921D01*
X354611Y231614D01*
Y231221D01*
X354111Y231013D01*
X352563Y232561D01*
Y233949D01*
X352502Y234256D01*
X352461Y234317D01*
X352481Y234330D01*
X352702Y234661D01*
X352779Y235051D01*
Y235732D01*
X348221D01*
Y235051D01*
X348298Y234661D01*
X348519Y234330D01*
X348539Y234317D01*
X348498Y234256D01*
X348437Y233949D01*
Y231587D01*
X348498Y231279D01*
X348673Y231019D01*
X348933Y230845D01*
X349240Y230784D01*
X350628D01*
X351517Y229894D01*
X351231Y229484D01*
X350728Y229584D01*
X348937D01*
X348866Y229691D01*
X348214Y230126D01*
X347446Y230279D01*
X346678Y230126D01*
X346027Y229691D01*
X345592Y229040D01*
X345439Y228272D01*
X345510Y227915D01*
X345085Y227490D01*
X345000Y227507D01*
X344232Y227354D01*
X343581Y226919D01*
X343146Y226268D01*
X343089Y225984D01*
X341787D01*
X341480Y225923D01*
X341220Y225749D01*
X340780D01*
X340520Y225923D01*
X340213Y225984D01*
X337260D01*
X336953Y225923D01*
X336692Y225749D01*
X336518Y225488D01*
X336457Y225181D01*
Y223577D01*
X335240Y222360D01*
X334767Y222594D01*
X334820Y223000D01*
X334690Y223989D01*
X334308Y224910D01*
X333701Y225701D01*
X332910Y226308D01*
X331989Y226690D01*
X331000Y226820D01*
X330011Y226690D01*
X329090Y226308D01*
X328299Y225701D01*
X327692Y224910D01*
X327310Y223989D01*
X327180Y223000D01*
X327310Y222011D01*
X327570Y221385D01*
X327493Y221000D01*
X327646Y220232D01*
X328081Y219581D01*
X328732Y219146D01*
X329500Y218993D01*
X330268Y219146D01*
X330431Y219255D01*
X331000Y219180D01*
X331989Y219310D01*
X332586Y219557D01*
X333187Y218956D01*
Y215511D01*
X332925D01*
X332618Y215450D01*
X332358Y215276D01*
X332184Y215016D01*
X332122Y214709D01*
Y211165D01*
X332184Y210858D01*
X332358Y210598D01*
X332618Y210424D01*
X332925Y210363D01*
X336075D01*
X336382Y210424D01*
X336643Y210598D01*
X336817Y210858D01*
X336878Y211165D01*
Y213458D01*
X338607Y215187D01*
X351000D01*
X351502Y215287D01*
X351928Y215572D01*
X353471Y217115D01*
X353690Y217443D01*
X353764Y217542D01*
X354279Y217605D01*
X354488Y217465D01*
X355102Y217343D01*
X355717Y217465D01*
X356238Y217813D01*
X356526D01*
X357047Y217465D01*
X357661Y217343D01*
X358276Y217465D01*
X358797Y217813D01*
X359085D01*
X359606Y217465D01*
X360221Y217343D01*
X360835Y217465D01*
X360967Y217554D01*
X361467Y217286D01*
Y214823D01*
X359921Y213277D01*
X347037D01*
X347002Y213453D01*
X346828Y213713D01*
X346567Y213887D01*
X346260Y213948D01*
X343740D01*
X343433Y213887D01*
X343173Y213713D01*
X342998Y213453D01*
X342964Y213277D01*
X342035D01*
X341533Y213177D01*
X341184Y212944D01*
X340732Y212854D01*
X340081Y212419D01*
X339646Y211768D01*
X339493Y211000D01*
X339646Y210232D01*
X340081Y209581D01*
X340732Y209146D01*
X341500Y208993D01*
X342221Y209136D01*
X342353Y209114D01*
X342567Y209000D01*
X347279D01*
Y209681D01*
X347202Y210071D01*
X347148Y210152D01*
X347415Y210652D01*
X360465D01*
X360967Y210752D01*
X361393Y211036D01*
X363708Y213351D01*
X363886Y213618D01*
X364219Y213691D01*
X364360Y213695D01*
X364475Y213668D01*
X367411Y210732D01*
X366492Y209813D01*
X363990D01*
X363919Y209919D01*
X363268Y210354D01*
X362500Y210507D01*
X361732Y210354D01*
X361081Y209919D01*
X360646Y209268D01*
X360493Y208500D01*
X360646Y207732D01*
X361081Y207081D01*
X361732Y206646D01*
X362500Y206493D01*
X363268Y206646D01*
X363919Y207081D01*
X363990Y207187D01*
X366159D01*
X366426Y206687D01*
X366146Y206268D01*
X366047Y205770D01*
X365847Y205472D01*
X365503Y205407D01*
X365000Y205507D01*
X364232Y205354D01*
X363581Y204919D01*
X363146Y204268D01*
X362993Y203500D01*
X363146Y202732D01*
X363581Y202081D01*
X363613Y202060D01*
X363608Y201963D01*
X363597Y201941D01*
X363089Y201595D01*
X362779Y201657D01*
X362165Y201535D01*
X362037Y201449D01*
X361509Y201340D01*
X360918Y201735D01*
X360775Y201763D01*
X360574Y202313D01*
X360854Y202732D01*
X361007Y203500D01*
X360854Y204268D01*
X360419Y204919D01*
X359768Y205354D01*
X359000Y205507D01*
X358395Y205387D01*
X358033Y205661D01*
X357962Y205771D01*
X358007Y206000D01*
X357854Y206768D01*
X357419Y207419D01*
X356768Y207854D01*
X356000Y208007D01*
X355232Y207854D01*
X354581Y207419D01*
X354146Y206768D01*
X353993Y206000D01*
X354113Y205395D01*
X353839Y205033D01*
X353729Y204962D01*
X353500Y205007D01*
X352997Y204907D01*
X352653Y204972D01*
X352453Y205270D01*
X352354Y205768D01*
X351919Y206419D01*
X351268Y206854D01*
X350500Y207007D01*
X349732Y206854D01*
X349081Y206419D01*
X348646Y205768D01*
X348493Y205000D01*
X348646Y204232D01*
X349081Y203581D01*
X349156Y203531D01*
Y201392D01*
X348849Y201187D01*
X348501Y200666D01*
X348379Y200051D01*
Y196311D01*
X348468Y195864D01*
X348007Y195617D01*
X347063Y196561D01*
Y197949D01*
X347002Y198256D01*
X346961Y198317D01*
X346981Y198330D01*
X347202Y198661D01*
X347279Y199051D01*
Y199732D01*
X345000D01*
Y200232D01*
X344500D01*
Y202433D01*
X343740D01*
X343433Y202372D01*
X343354Y202768D01*
X342919Y203419D01*
X342268Y203854D01*
X341500Y204007D01*
X341221Y203952D01*
X340834Y204269D01*
Y204563D01*
X338740D01*
Y202272D01*
X339270D01*
X339493Y202000D01*
X339646Y201232D01*
X340081Y200581D01*
X340732Y200146D01*
X341500Y199993D01*
X342221Y200136D01*
X342353Y200114D01*
X342721Y199918D01*
Y199051D01*
X342798Y198661D01*
X343019Y198330D01*
X343039Y198317D01*
X342998Y198256D01*
X342937Y197949D01*
Y195587D01*
X342998Y195279D01*
X343173Y195019D01*
X343433Y194845D01*
X343740Y194784D01*
X345128D01*
X347340Y192572D01*
X347765Y192287D01*
X348268Y192187D01*
X376010D01*
X376081Y192081D01*
X376732Y191646D01*
X377447Y191504D01*
X377397Y191004D01*
X263003D01*
X263003Y270497D01*
X265395D01*
X265642Y269997D01*
X265192Y269410D01*
X264810Y268489D01*
X264680Y267500D01*
X264810Y266511D01*
X265192Y265590D01*
X265799Y264799D01*
X266590Y264192D01*
X267511Y263810D01*
X268500Y263680D01*
X269489Y263810D01*
X270410Y264192D01*
X271201Y264799D01*
X271808Y265590D01*
X272190Y266511D01*
X272320Y267500D01*
X272190Y268489D01*
X271808Y269410D01*
X271358Y269997D01*
X271605Y270497D01*
X275895D01*
X276142Y269997D01*
X275692Y269410D01*
X275310Y268489D01*
X275180Y267500D01*
X275310Y266511D01*
X275692Y265590D01*
X276299Y264799D01*
X277090Y264192D01*
X278011Y263810D01*
X279000Y263680D01*
X279989Y263810D01*
X280910Y264192D01*
X281701Y264799D01*
X282308Y265590D01*
X282690Y266511D01*
X282820Y267500D01*
X282690Y268489D01*
X282308Y269410D01*
X281858Y269997D01*
X282105Y270497D01*
X285895D01*
X286142Y269997D01*
X285692Y269410D01*
X285310Y268489D01*
X285180Y267500D01*
X285310Y266511D01*
X285692Y265590D01*
X286299Y264799D01*
X287090Y264192D01*
X288011Y263810D01*
X289000Y263680D01*
X289989Y263810D01*
X290910Y264192D01*
X291701Y264799D01*
X292308Y265590D01*
X292690Y266511D01*
X292820Y267500D01*
X292690Y268489D01*
X292308Y269410D01*
X291858Y269997D01*
X292105Y270497D01*
X295895D01*
X296142Y269997D01*
X295692Y269410D01*
X295310Y268489D01*
X295180Y267500D01*
X295310Y266511D01*
X295692Y265590D01*
X296299Y264799D01*
X297090Y264192D01*
X298011Y263810D01*
X299000Y263680D01*
X299989Y263810D01*
X300910Y264192D01*
X301701Y264799D01*
X302308Y265590D01*
X302690Y266511D01*
X302820Y267500D01*
X302690Y268489D01*
X302308Y269410D01*
X301858Y269997D01*
X302105Y270497D01*
X305395D01*
X305642Y269997D01*
X305192Y269410D01*
X304810Y268489D01*
X304680Y267500D01*
X304810Y266511D01*
X305192Y265590D01*
X305799Y264799D01*
X306590Y264192D01*
X307511Y263810D01*
X308500Y263680D01*
X309489Y263810D01*
X310410Y264192D01*
X311201Y264799D01*
X311808Y265590D01*
X312190Y266511D01*
X312320Y267500D01*
X312190Y268489D01*
X311808Y269410D01*
X311358Y269997D01*
X311605Y270497D01*
X314627D01*
X314874Y269997D01*
X314506Y269517D01*
X314103Y268544D01*
X314031Y268000D01*
X318000D01*
X321969D01*
X321897Y268544D01*
X321494Y269517D01*
X321126Y269997D01*
X321373Y270497D01*
X361703D01*
X361855Y269997D01*
D02*
G37*
%LPC*%
G36*
X387433Y229500D02*
X385732D01*
Y227721D01*
X386413D01*
X386804Y227798D01*
X387134Y228019D01*
X387355Y228350D01*
X387433Y228740D01*
Y229500D01*
D02*
G37*
G36*
X380779Y206768D02*
X379000D01*
Y205067D01*
X379760D01*
X380150Y205145D01*
X380481Y205366D01*
X380702Y205696D01*
X380779Y206087D01*
Y206768D01*
D02*
G37*
G36*
X389728Y200000D02*
X386650D01*
Y196724D01*
X388709D01*
X389099Y196802D01*
X389430Y197023D01*
X389651Y197354D01*
X389728Y197744D01*
Y200000D01*
D02*
G37*
G36*
X378000Y206768D02*
X376221D01*
Y206087D01*
X376298Y205696D01*
X376519Y205366D01*
X376850Y205145D01*
X377240Y205067D01*
X378000D01*
Y206768D01*
D02*
G37*
G36*
X388709Y204275D02*
X386650D01*
Y201000D01*
X389728D01*
Y203256D01*
X389651Y203646D01*
X389430Y203977D01*
X389099Y204198D01*
X388709Y204275D01*
D02*
G37*
G36*
X376779Y231268D02*
X375000D01*
Y229567D01*
X375760D01*
X376150Y229645D01*
X376481Y229866D01*
X376702Y230196D01*
X376779Y230587D01*
Y231268D01*
D02*
G37*
G36*
X374000D02*
X372221D01*
Y230587D01*
X372298Y230196D01*
X372519Y229866D01*
X372850Y229645D01*
X373240Y229567D01*
X374000D01*
Y231268D01*
D02*
G37*
G36*
X386413Y237279D02*
X385732D01*
Y235500D01*
X387433D01*
Y236260D01*
X387355Y236650D01*
X387134Y236981D01*
X386804Y237202D01*
X386413Y237279D01*
D02*
G37*
G36*
X306500Y216007D02*
X305732Y215854D01*
X305081Y215419D01*
X304646Y214768D01*
X304493Y214000D01*
X304646Y213232D01*
X305081Y212581D01*
X305732Y212146D01*
X306500Y211993D01*
X307268Y212146D01*
X307919Y212581D01*
X308354Y213232D01*
X308507Y214000D01*
X308354Y214768D01*
X307919Y215419D01*
X307268Y215854D01*
X306500Y216007D01*
D02*
G37*
G36*
X316843Y223500D02*
X314551D01*
Y222031D01*
X314629Y221641D01*
X314850Y221310D01*
X315181Y221090D01*
X315571Y221012D01*
X316843D01*
Y223500D01*
D02*
G37*
G36*
X337740Y207854D02*
X336665D01*
X336275Y207777D01*
X335944Y207556D01*
X335723Y207225D01*
X335646Y206835D01*
Y205563D01*
X337740D01*
Y207854D01*
D02*
G37*
G36*
X339815D02*
X338740D01*
Y205563D01*
X340834D01*
Y206835D01*
X340757Y207225D01*
X340536Y207556D01*
X340205Y207777D01*
X339815Y207854D01*
D02*
G37*
G36*
X267500Y251320D02*
X266511Y251190D01*
X265590Y250808D01*
X264799Y250201D01*
X264192Y249410D01*
X263810Y248489D01*
X263680Y247500D01*
X263810Y246511D01*
X264192Y245590D01*
X264799Y244799D01*
X265590Y244192D01*
X266341Y243880D01*
X282725Y227497D01*
Y225630D01*
X282786Y225323D01*
X282960Y225062D01*
X283220Y224888D01*
X283477Y224837D01*
Y219026D01*
X283333Y218811D01*
X283272Y218504D01*
Y211496D01*
X283333Y211189D01*
X283507Y210928D01*
X283768Y210754D01*
X284075Y210693D01*
X290059D01*
X290366Y210754D01*
X290627Y210928D01*
X290801Y211189D01*
X290862Y211496D01*
Y218504D01*
X290801Y218811D01*
X290627Y219072D01*
X290366Y219246D01*
X290059Y219307D01*
X287122D01*
Y222447D01*
X287584Y222638D01*
X287711Y222511D01*
X287711Y222511D01*
X288303Y222115D01*
X289000Y221977D01*
X289000Y221977D01*
X302837D01*
X302888Y221720D01*
X303062Y221460D01*
X303323Y221286D01*
X303630Y221225D01*
X307370D01*
X307677Y221286D01*
X307938Y221460D01*
X308112Y221720D01*
X308173Y222028D01*
Y225571D01*
X308112Y225878D01*
X307938Y226138D01*
X307677Y226313D01*
X307370Y226374D01*
X303630D01*
X303323Y226313D01*
X303062Y226138D01*
X302888Y225878D01*
X302837Y225622D01*
X300499D01*
X300492Y225630D01*
Y227000D01*
X297701D01*
X294910D01*
Y225630D01*
X294903Y225622D01*
X289755D01*
X287874Y227503D01*
Y229370D01*
X287813Y229677D01*
X287639Y229938D01*
X287378Y230112D01*
X287071Y230173D01*
X285204D01*
X270365Y245012D01*
X270808Y245590D01*
X271190Y246511D01*
X271320Y247500D01*
X271190Y248489D01*
X270808Y249410D01*
X270201Y250201D01*
X269410Y250808D01*
X268489Y251190D01*
X267500Y251320D01*
D02*
G37*
G36*
X297201Y230390D02*
X295929D01*
X295539Y230312D01*
X295208Y230091D01*
X294987Y229760D01*
X294910Y229370D01*
Y228000D01*
X297201D01*
Y230390D01*
D02*
G37*
G36*
X299472D02*
X298201D01*
Y228000D01*
X300492D01*
Y229370D01*
X300414Y229760D01*
X300193Y230091D01*
X299863Y230312D01*
X299472Y230390D01*
D02*
G37*
G36*
X316945Y231902D02*
X314063D01*
Y229252D01*
X314141Y228862D01*
X314362Y228531D01*
X314692Y228310D01*
X315083Y228232D01*
X316945D01*
Y231902D01*
D02*
G37*
G36*
X316843Y226988D02*
X315571D01*
X315181Y226910D01*
X314850Y226690D01*
X314629Y226359D01*
X314551Y225969D01*
Y224500D01*
X316843D01*
Y226988D01*
D02*
G37*
G36*
X322000Y243507D02*
X321232Y243354D01*
X320581Y242919D01*
X320146Y242268D01*
X319993Y241500D01*
X320146Y240732D01*
X320581Y240081D01*
X321232Y239646D01*
X322000Y239493D01*
X322768Y239646D01*
X323108Y239873D01*
X323646Y239732D01*
X324081Y239081D01*
X324678Y238682D01*
Y236354D01*
X324138D01*
X323831Y236293D01*
X323570Y236119D01*
X323396Y235858D01*
X323335Y235551D01*
Y231814D01*
X322211Y230690D01*
X321816Y230099D01*
X321678Y229402D01*
X321678Y229401D01*
Y228816D01*
X321646Y228768D01*
X321635Y228712D01*
X320711Y227789D01*
X320316Y227197D01*
X320266Y226945D01*
X320125Y226861D01*
X319721Y226766D01*
X319504Y226910D01*
X319114Y226988D01*
X317843D01*
Y224000D01*
Y221012D01*
X319114D01*
X319504Y221090D01*
X319824Y221303D01*
X319839Y221312D01*
X320318Y221464D01*
X320579Y221290D01*
X320835Y221239D01*
Y219307D01*
X319508D01*
X319201Y219246D01*
X318940Y219072D01*
X318766Y218811D01*
X318705Y218504D01*
Y211496D01*
X318766Y211189D01*
X318940Y210928D01*
X319201Y210754D01*
X319508Y210693D01*
X325492D01*
X325799Y210754D01*
X326060Y210928D01*
X326234Y211189D01*
X326295Y211496D01*
Y218504D01*
X326234Y218811D01*
X326060Y219072D01*
X325799Y219246D01*
X325492Y219307D01*
X324480D01*
Y221239D01*
X324736Y221290D01*
X324997Y221464D01*
X325171Y221724D01*
X325232Y222031D01*
Y225969D01*
X325171Y226276D01*
X324997Y226536D01*
X324972Y226660D01*
X325354Y227232D01*
X325507Y228000D01*
X325495Y228063D01*
X325812Y228449D01*
X328862D01*
X329169Y228510D01*
X329430Y228684D01*
X329604Y228945D01*
X329665Y229252D01*
Y235551D01*
X329604Y235858D01*
X329430Y236119D01*
X329169Y236293D01*
X328862Y236354D01*
X328322D01*
Y239500D01*
X328184Y240197D01*
X327789Y240789D01*
X327398Y241050D01*
X327354Y241268D01*
X326919Y241919D01*
X326268Y242354D01*
X325500Y242507D01*
X324732Y242354D01*
X324392Y242127D01*
X323854Y242268D01*
X323419Y242919D01*
X322768Y243354D01*
X322000Y243507D01*
D02*
G37*
G36*
X339260Y198500D02*
X337264D01*
Y196799D01*
X338240D01*
X338630Y196877D01*
X338961Y197098D01*
X339182Y197429D01*
X339260Y197819D01*
Y198500D01*
D02*
G37*
G36*
X338240Y201201D02*
X337264D01*
Y199500D01*
X339260D01*
Y200181D01*
X339182Y200571D01*
X338961Y200902D01*
X338630Y201123D01*
X338240Y201201D01*
D02*
G37*
G36*
X325492Y209307D02*
X319508D01*
X319201Y209246D01*
X318940Y209072D01*
X318766Y208811D01*
X318705Y208504D01*
Y201496D01*
X318766Y201189D01*
X318940Y200928D01*
X319201Y200754D01*
X319508Y200693D01*
X325492D01*
X325799Y200754D01*
X326060Y200928D01*
X326234Y201189D01*
X326295Y201496D01*
Y203750D01*
X328382D01*
Y203291D01*
X328443Y202984D01*
X328617Y202724D01*
X328878Y202550D01*
X329185Y202488D01*
X329447D01*
Y202240D01*
X329547Y201738D01*
X329832Y201312D01*
X330210Y200933D01*
X330192Y200749D01*
X330018Y200488D01*
X329957Y200181D01*
Y197819D01*
X330018Y197512D01*
X330192Y197251D01*
X330453Y197077D01*
X330760Y197016D01*
X333713D01*
X334020Y197077D01*
X334280Y197251D01*
X334714Y197000D01*
X334897Y196877D01*
X335287Y196799D01*
X336264D01*
Y199000D01*
Y201201D01*
X335287D01*
X334897Y201123D01*
X334714Y201000D01*
X334280Y200749D01*
X334020Y200923D01*
X333713Y200984D01*
X333505D01*
X333449Y201266D01*
X333164Y201692D01*
X332755Y202101D01*
X332865Y202699D01*
X332902Y202724D01*
X333076Y202984D01*
X333137Y203291D01*
Y206835D01*
X333076Y207142D01*
X332902Y207402D01*
X332642Y207576D01*
X332335Y207638D01*
X329185D01*
X328878Y207576D01*
X328617Y207402D01*
X328443Y207142D01*
X328382Y206835D01*
Y206376D01*
X326295D01*
Y208504D01*
X326234Y208811D01*
X326060Y209072D01*
X325799Y209246D01*
X325492Y209307D01*
D02*
G37*
G36*
X267500Y231635D02*
X266511Y231505D01*
X265590Y231123D01*
X264799Y230516D01*
X264192Y229725D01*
X263810Y228804D01*
X263680Y227815D01*
X263810Y226826D01*
X264192Y225905D01*
X264799Y225114D01*
X265590Y224507D01*
X266511Y224125D01*
X267500Y223995D01*
X268489Y224125D01*
X269410Y224507D01*
X270201Y225114D01*
X270808Y225905D01*
X270845Y225992D01*
X271930D01*
X275178Y222745D01*
Y201736D01*
X275178Y201736D01*
X275316Y201039D01*
X275711Y200448D01*
X279957Y196202D01*
Y195319D01*
X280018Y195012D01*
X280192Y194751D01*
X280453Y194577D01*
X280760Y194516D01*
X283713D01*
X284020Y194577D01*
X284280Y194751D01*
X284720D01*
X284980Y194577D01*
X285287Y194516D01*
X288240D01*
X288547Y194577D01*
X288808Y194751D01*
X288982Y195012D01*
X289043Y195319D01*
Y197681D01*
X288982Y197988D01*
X288808Y198249D01*
X288547Y198423D01*
X288380Y198456D01*
Y200693D01*
X290059D01*
X290366Y200754D01*
X290627Y200928D01*
X290801Y201189D01*
X290862Y201496D01*
Y208504D01*
X290801Y208811D01*
X290627Y209072D01*
X290366Y209246D01*
X290059Y209307D01*
X284075D01*
X283768Y209246D01*
X283507Y209072D01*
X283333Y208811D01*
X283272Y208504D01*
Y201496D01*
X283333Y201189D01*
X283507Y200928D01*
X283768Y200754D01*
X284075Y200693D01*
X285754D01*
Y198484D01*
X285287D01*
X284980Y198423D01*
X284720Y198249D01*
X284280D01*
X284020Y198423D01*
X283713Y198484D01*
X282830D01*
X278822Y202491D01*
Y223500D01*
X278684Y224197D01*
X278289Y224789D01*
X278289Y224789D01*
X273974Y229104D01*
X273382Y229499D01*
X272685Y229637D01*
X272685Y229637D01*
X270845D01*
X270808Y229725D01*
X270201Y230516D01*
X269410Y231123D01*
X268489Y231505D01*
X267500Y231635D01*
D02*
G37*
G36*
X346260Y202433D02*
X345500D01*
Y200732D01*
X347279D01*
Y201413D01*
X347202Y201804D01*
X346981Y202134D01*
X346650Y202355D01*
X346260Y202433D01*
D02*
G37*
G36*
X267500Y211950D02*
X266511Y211820D01*
X265590Y211438D01*
X264799Y210831D01*
X264192Y210040D01*
X263810Y209119D01*
X263680Y208130D01*
X263810Y207141D01*
X264192Y206220D01*
X264799Y205429D01*
X265590Y204822D01*
X266511Y204440D01*
X267500Y204310D01*
X268489Y204440D01*
X269410Y204822D01*
X270201Y205429D01*
X270808Y206220D01*
X271190Y207141D01*
X271320Y208130D01*
X271190Y209119D01*
X270808Y210040D01*
X270201Y210831D01*
X269410Y211438D01*
X268489Y211820D01*
X267500Y211950D01*
D02*
G37*
G36*
X347279Y208000D02*
X342721D01*
Y207319D01*
X342798Y206929D01*
X343019Y206598D01*
X343074Y206561D01*
X343251Y205926D01*
X343146Y205768D01*
X342993Y205000D01*
X343146Y204232D01*
X343581Y203581D01*
X344232Y203146D01*
X345000Y202993D01*
X345768Y203146D01*
X346419Y203581D01*
X346854Y204232D01*
X347007Y205000D01*
X346854Y205768D01*
X346749Y205926D01*
X346926Y206561D01*
X346981Y206598D01*
X347202Y206929D01*
X347279Y207319D01*
Y208000D01*
D02*
G37*
G36*
X337740Y204563D02*
X335646D01*
Y203291D01*
X335723Y202901D01*
X335944Y202570D01*
X336275Y202349D01*
X336665Y202272D01*
X337740D01*
Y204563D01*
D02*
G37*
G36*
X291736Y254701D02*
X290760D01*
X290370Y254623D01*
X290039Y254402D01*
X289818Y254071D01*
X289740Y253681D01*
Y253000D01*
X291736D01*
Y254701D01*
D02*
G37*
G36*
X332996Y261551D02*
X320004D01*
X319697Y261490D01*
X319436Y261316D01*
X319262Y261055D01*
X319201Y260748D01*
Y254449D01*
X319262Y254142D01*
X319436Y253881D01*
X319697Y253707D01*
X320004Y253646D01*
X332996D01*
X333303Y253707D01*
X333564Y253881D01*
X333738Y254142D01*
X333799Y254449D01*
Y260748D01*
X333738Y261055D01*
X333564Y261316D01*
X333303Y261490D01*
X332996Y261551D01*
D02*
G37*
G36*
X291736Y252000D02*
X289740D01*
Y251319D01*
X289818Y250929D01*
X290039Y250598D01*
X290370Y250377D01*
X290760Y250299D01*
X291736D01*
Y252000D01*
D02*
G37*
G36*
X293713Y254701D02*
X292736D01*
Y252500D01*
Y250299D01*
X293713D01*
X294103Y250377D01*
X294286Y250500D01*
X294720Y250751D01*
X294980Y250577D01*
X295287Y250516D01*
X298089D01*
X298146Y250232D01*
X298581Y249581D01*
X299232Y249146D01*
X300000Y248993D01*
X300768Y249146D01*
X301419Y249581D01*
X301540Y249761D01*
X302040Y249609D01*
Y247322D01*
X299775D01*
Y247370D01*
X299714Y247677D01*
X299540Y247938D01*
X299280Y248112D01*
X298972Y248173D01*
X295429D01*
X295122Y248112D01*
X294861Y247938D01*
X294687Y247677D01*
X294626Y247370D01*
Y243630D01*
X294687Y243323D01*
X294861Y243062D01*
X295122Y242888D01*
X295429Y242827D01*
X298972D01*
X299280Y242888D01*
X299540Y243062D01*
X299714Y243323D01*
X299775Y243630D01*
Y243678D01*
X302945D01*
X302945Y243678D01*
X303178Y243724D01*
X303678Y243314D01*
Y238775D01*
X303630D01*
X303323Y238714D01*
X303062Y238540D01*
X302888Y238280D01*
X302827Y237972D01*
Y234429D01*
X302888Y234122D01*
X303062Y233861D01*
X303323Y233687D01*
X303630Y233626D01*
X307370D01*
X307677Y233687D01*
X307938Y233861D01*
X308112Y234122D01*
X308173Y234429D01*
Y234860D01*
X308673Y235019D01*
X309232Y234646D01*
X310000Y234493D01*
X310768Y234646D01*
X311419Y235081D01*
X311854Y235732D01*
X312007Y236500D01*
X311854Y237268D01*
X311419Y237919D01*
X310768Y238354D01*
X310000Y238507D01*
X309232Y238354D01*
X308670Y237979D01*
X308578Y237978D01*
X308342Y238046D01*
X308137Y238155D01*
X308112Y238280D01*
X307938Y238540D01*
X307677Y238714D01*
X307370Y238775D01*
X307322D01*
Y240566D01*
X307822Y240718D01*
X308081Y240331D01*
X308732Y239896D01*
X309500Y239743D01*
X310268Y239896D01*
X310919Y240331D01*
X311354Y240982D01*
X311507Y241750D01*
X311354Y242518D01*
X310919Y243169D01*
X310268Y243604D01*
X309500Y243757D01*
X308732Y243604D01*
X308081Y243169D01*
X307822Y242782D01*
X307322Y242934D01*
Y244988D01*
X308157D01*
X308465Y245050D01*
X308725Y245224D01*
X308899Y245484D01*
X308960Y245791D01*
Y250319D01*
X308899Y250626D01*
X308725Y250887D01*
X308465Y251061D01*
X308157Y251122D01*
X302842D01*
X302535Y251061D01*
X302483Y251026D01*
X301958Y251244D01*
X301854Y251768D01*
X301419Y252419D01*
X300768Y252854D01*
X300000Y253007D01*
X299874Y252982D01*
X299428Y253428D01*
X299042Y253686D01*
X298982Y253988D01*
X298808Y254249D01*
X298547Y254423D01*
X298240Y254484D01*
X295287D01*
X294980Y254423D01*
X294720Y254249D01*
X294286Y254500D01*
X294103Y254623D01*
X293713Y254701D01*
D02*
G37*
G36*
X285000Y253507D02*
X284232Y253354D01*
X283581Y252919D01*
X283146Y252268D01*
X282993Y251500D01*
X283146Y250732D01*
X283581Y250081D01*
X284232Y249646D01*
X285000Y249493D01*
X285768Y249646D01*
X286419Y250081D01*
X286854Y250732D01*
X287007Y251500D01*
X286854Y252268D01*
X286419Y252919D01*
X285768Y253354D01*
X285000Y253507D01*
D02*
G37*
G36*
X314500Y258507D02*
X313732Y258354D01*
X313081Y257919D01*
X312646Y257268D01*
X312493Y256500D01*
X312646Y255732D01*
X313081Y255081D01*
X313732Y254646D01*
X314500Y254493D01*
X315268Y254646D01*
X315919Y255081D01*
X316354Y255732D01*
X316507Y256500D01*
X316354Y257268D01*
X315919Y257919D01*
X315268Y258354D01*
X314500Y258507D01*
D02*
G37*
G36*
X342768Y266000D02*
X341067D01*
Y265240D01*
X341145Y264850D01*
X341366Y264519D01*
X341696Y264298D01*
X342087Y264221D01*
X342768D01*
Y266000D01*
D02*
G37*
G36*
Y268779D02*
X342087D01*
X341696Y268702D01*
X341366Y268481D01*
X341145Y268150D01*
X341067Y267760D01*
Y267000D01*
X342768D01*
Y268779D01*
D02*
G37*
G36*
X321969Y267000D02*
X318500D01*
Y263531D01*
X319044Y263603D01*
X320017Y264006D01*
X320853Y264647D01*
X321494Y265483D01*
X321897Y266456D01*
X321969Y267000D01*
D02*
G37*
G36*
X291843Y258000D02*
X289551D01*
Y256532D01*
X289629Y256141D01*
X289850Y255810D01*
X290181Y255590D01*
X290571Y255512D01*
X291843D01*
Y258000D01*
D02*
G37*
G36*
X317500Y267000D02*
X314031D01*
X314103Y266456D01*
X314506Y265483D01*
X315147Y264647D01*
X315983Y264006D01*
X316956Y263603D01*
X317500Y263531D01*
Y267000D01*
D02*
G37*
G36*
X343500Y245728D02*
X341244D01*
X340854Y245651D01*
X340523Y245430D01*
X340302Y245099D01*
X340225Y244709D01*
Y242650D01*
X343500D01*
Y245728D01*
D02*
G37*
G36*
X316945Y236571D02*
X315083D01*
X314692Y236493D01*
X314362Y236272D01*
X314141Y235941D01*
X314063Y235551D01*
Y232902D01*
X316945D01*
Y236571D01*
D02*
G37*
G36*
X319807D02*
X317945D01*
Y232902D01*
X320827D01*
Y235551D01*
X320749Y235941D01*
X320528Y236272D01*
X320197Y236493D01*
X319807Y236571D01*
D02*
G37*
G36*
X320827Y231902D02*
X317945D01*
Y228232D01*
X319807D01*
X320197Y228310D01*
X320528Y228531D01*
X320749Y228862D01*
X320827Y229252D01*
Y231902D01*
D02*
G37*
G36*
X297201Y236000D02*
X294910D01*
Y234630D01*
X294987Y234240D01*
X295208Y233909D01*
X295539Y233688D01*
X295929Y233610D01*
X297201D01*
Y236000D01*
D02*
G37*
G36*
Y239390D02*
X295929D01*
X295539Y239312D01*
X295208Y239091D01*
X294987Y238760D01*
X294910Y238370D01*
Y237000D01*
X297201D01*
Y239390D01*
D02*
G37*
G36*
X299472D02*
X298201D01*
Y237000D01*
X300492D01*
Y238370D01*
X300414Y238760D01*
X300193Y239091D01*
X299863Y239312D01*
X299472Y239390D01*
D02*
G37*
G36*
X300492Y236000D02*
X298201D01*
Y233610D01*
X299472D01*
X299863Y233688D01*
X300193Y233909D01*
X300414Y234240D01*
X300492Y234630D01*
Y236000D01*
D02*
G37*
G36*
X286571Y248173D02*
X283028D01*
X282720Y248112D01*
X282460Y247938D01*
X282286Y247677D01*
X282225Y247370D01*
Y243630D01*
X282286Y243323D01*
X282460Y243062D01*
X282720Y242888D01*
X283028Y242827D01*
X283477D01*
Y242316D01*
X283445Y242268D01*
X283292Y241500D01*
X283445Y240732D01*
X283477Y240684D01*
Y239163D01*
X283220Y239112D01*
X282960Y238938D01*
X282786Y238677D01*
X282725Y238370D01*
Y234630D01*
X282786Y234323D01*
X282960Y234062D01*
X283220Y233888D01*
X283528Y233827D01*
X287071D01*
X287378Y233888D01*
X287639Y234062D01*
X287813Y234323D01*
X287874Y234630D01*
Y238370D01*
X287813Y238677D01*
X287639Y238938D01*
X287378Y239112D01*
X287122Y239163D01*
Y240684D01*
X287154Y240732D01*
X287306Y241500D01*
X287154Y242268D01*
X287122Y242316D01*
Y243051D01*
X287139Y243062D01*
X287313Y243323D01*
X287374Y243630D01*
Y247370D01*
X287313Y247677D01*
X287139Y247938D01*
X286878Y248112D01*
X286571Y248173D01*
D02*
G37*
%LPD*%
D10*
X360736Y242500D02*
D03*
X365264D02*
D03*
X292236Y252500D02*
D03*
X296764D02*
D03*
X336764Y199000D02*
D03*
X332236D02*
D03*
X282236Y196500D02*
D03*
X286764D02*
D03*
X338736Y224000D02*
D03*
X343264D02*
D03*
D11*
X366831Y235650D02*
D03*
Y229350D02*
D03*
X358169Y235650D02*
D03*
Y229350D02*
D03*
D12*
X373016Y220819D02*
D03*
X370457D02*
D03*
X367898D02*
D03*
X365339D02*
D03*
X362779D02*
D03*
X360221D02*
D03*
X357661D02*
D03*
X355102D02*
D03*
X352543D02*
D03*
X349984D02*
D03*
X373016Y198181D02*
D03*
X370457D02*
D03*
X367898D02*
D03*
X365339D02*
D03*
X362779D02*
D03*
X360221D02*
D03*
X357661D02*
D03*
X355102D02*
D03*
X352543D02*
D03*
X349984D02*
D03*
D13*
X359937Y255236D02*
D03*
D14*
X356000Y262972D02*
D03*
X357968D02*
D03*
X359937D02*
D03*
X361906D02*
D03*
X363874D02*
D03*
Y247500D02*
D03*
X361906D02*
D03*
X359937D02*
D03*
X357968D02*
D03*
X356000D02*
D03*
D15*
X367673Y259173D02*
D03*
Y257205D02*
D03*
Y255236D02*
D03*
Y253268D02*
D03*
Y251299D02*
D03*
X352201D02*
D03*
Y253268D02*
D03*
Y255236D02*
D03*
Y257205D02*
D03*
Y259173D02*
D03*
D16*
X326500Y257598D02*
D03*
D17*
X335555Y232402D02*
D03*
X326500D02*
D03*
X317445D02*
D03*
D18*
X331000Y223000D02*
D03*
X268500Y267500D02*
D03*
X289000D02*
D03*
X279000D02*
D03*
X299000D02*
D03*
X308500D02*
D03*
X318000D02*
D03*
X267500Y247500D02*
D03*
Y227815D02*
D03*
Y208130D02*
D03*
D19*
X379000Y262264D02*
D03*
Y257736D02*
D03*
D20*
X334500Y212937D02*
D03*
X338240Y205063D02*
D03*
X330760D02*
D03*
D21*
X381500Y243732D02*
D03*
Y240268D02*
D03*
X375000Y249268D02*
D03*
Y252732D02*
D03*
X350500Y236232D02*
D03*
Y232768D02*
D03*
X374500Y231768D02*
D03*
Y235232D02*
D03*
X378500Y210732D02*
D03*
Y207268D02*
D03*
X345000Y211965D02*
D03*
Y208500D02*
D03*
Y196768D02*
D03*
Y200232D02*
D03*
X406500Y246732D02*
D03*
Y243268D02*
D03*
X347000Y246768D02*
D03*
Y250232D02*
D03*
X373000Y259768D02*
D03*
Y263232D02*
D03*
D22*
X381768Y249000D02*
D03*
X385232D02*
D03*
X397768Y243000D02*
D03*
X401232D02*
D03*
X385232Y230000D02*
D03*
X381768D02*
D03*
X385232Y235000D02*
D03*
X381768D02*
D03*
X346732Y266500D02*
D03*
X343268D02*
D03*
D23*
X322500Y205000D02*
D03*
Y215000D02*
D03*
X287067Y205000D02*
D03*
Y215000D02*
D03*
D24*
X285299Y236500D02*
D03*
X297701D02*
D03*
X285299Y227500D02*
D03*
X297701D02*
D03*
X297201Y245500D02*
D03*
X284799D02*
D03*
D25*
X305500Y236201D02*
D03*
Y223799D02*
D03*
D26*
X317342Y224000D02*
D03*
X322657D02*
D03*
X297657Y258500D02*
D03*
X292342D02*
D03*
D27*
X386150Y200500D02*
D03*
X379850D02*
D03*
D28*
X344000Y235850D02*
D03*
Y242150D02*
D03*
D29*
X305500Y254945D02*
D03*
Y248055D02*
D03*
D30*
X367177Y269055D02*
X373000Y263232D01*
X362764Y269055D02*
X367177D01*
X359937Y262972D02*
Y266229D01*
X362764Y269055D01*
X379000Y262264D02*
Y265000D01*
X378500Y265500D02*
X379000Y265000D01*
X363874Y262972D02*
Y266374D01*
X334500Y219500D02*
Y219764D01*
Y212937D02*
Y219500D01*
Y219764D02*
X338736Y224000D01*
X331000Y223000D02*
X334500Y219500D01*
X352543Y218043D02*
Y220819D01*
X351000Y216500D02*
X352543Y218043D01*
X338063Y216500D02*
X351000D01*
X334500Y212937D02*
X338063Y216500D01*
X322500Y205000D02*
X322563Y205063D01*
X330760D01*
X332236Y199000D02*
Y200764D01*
X330760Y202240D02*
X332236Y200764D01*
X330760Y202240D02*
Y205063D01*
X379850Y195350D02*
Y200500D01*
X378000Y193500D02*
X379850Y195350D01*
X362779Y193780D02*
Y198181D01*
X362500Y193500D02*
X362779Y193780D01*
X348268Y193500D02*
X362500D01*
X345000Y196768D02*
X348268Y193500D01*
X345000Y211965D02*
X360465D01*
X362779Y214280D01*
X367673Y259173D02*
Y261173D01*
X369732Y263232D02*
X373000D01*
X367673Y261173D02*
X369732Y263232D01*
X357968Y245966D02*
Y247500D01*
X362779Y214280D02*
Y220319D01*
X358000Y263004D02*
Y265000D01*
X369268Y210732D02*
X378500D01*
X365339Y214661D02*
X369268Y210732D01*
X365339Y214661D02*
Y218819D01*
Y198181D02*
Y203161D01*
X365000Y203500D02*
X365339Y203161D01*
X370457Y198181D02*
Y202957D01*
X373016Y198181D02*
X375000Y200165D01*
Y202500D01*
X367898Y205398D02*
X368000Y205500D01*
X367898Y198181D02*
Y205398D01*
X370457Y202957D02*
X371000Y203500D01*
X352000Y251098D02*
X352201Y251299D01*
X356500Y266500D02*
X358000Y265000D01*
X347500Y266500D02*
X356500D01*
X352000Y249000D02*
Y251098D01*
X348000Y253500D02*
X348232Y253268D01*
X349163Y256181D02*
X350108Y255236D01*
X352201D01*
X348232Y253268D02*
X352201D01*
X352110Y257295D02*
X352201Y257205D01*
X350576Y257295D02*
X352110D01*
X349903Y257968D02*
X350576Y257295D01*
X346532Y257968D02*
X349903D01*
X345500Y259000D02*
X346532Y257968D01*
X352201Y262201D02*
X352500Y262500D01*
X352201Y259173D02*
Y262201D01*
X349949Y243819D02*
X355821D01*
X357968Y245966D01*
X354000Y246500D02*
X355000Y247500D01*
X356000D01*
X350500Y232768D02*
X353917Y229350D01*
X358169D01*
X366831Y235650D02*
X374083D01*
X374500Y235232D01*
X359937Y247500D02*
Y250587D01*
X361906Y260094D02*
Y262972D01*
X356000Y259500D02*
Y262972D01*
X352543Y198181D02*
Y202957D01*
X359937Y255236D02*
X361906Y257205D01*
Y245406D02*
Y247500D01*
X360736Y244236D02*
X361906Y245406D01*
X360736Y242500D02*
Y244236D01*
Y239923D02*
Y242500D01*
Y239923D02*
X362213Y238447D01*
Y232713D02*
Y238447D01*
X358850Y229350D02*
X362213Y232713D01*
X358169Y229350D02*
X358850D01*
X363874Y246126D02*
Y247500D01*
Y246126D02*
X365264Y244736D01*
Y242500D02*
Y244736D01*
Y241236D02*
Y242500D01*
Y241236D02*
X366831Y239669D01*
Y235650D02*
Y239669D01*
X373016Y216516D02*
Y220819D01*
X372500Y216000D02*
X373016Y216516D01*
X296764Y252500D02*
X298500D01*
X300000Y251000D01*
X284799Y245500D02*
X285299Y245000D01*
X287067Y196803D02*
Y205000D01*
X286764Y196500D02*
X287067Y196803D01*
X340551Y232402D02*
X342705Y234555D01*
X375232Y240268D02*
X381500D01*
X371000Y244500D02*
X375232Y240268D01*
X367673Y253268D02*
X369705D01*
X380535Y243732D02*
X381500D01*
X369705Y253268D02*
X373705Y249268D01*
X375000D01*
X367673Y249827D02*
Y251299D01*
Y249827D02*
X371000Y246500D01*
Y244500D02*
Y246500D01*
X372768Y252732D02*
X375000D01*
X367673Y255236D02*
X370264D01*
X372768Y252732D01*
X301945Y258500D02*
Y258945D01*
X267500Y245299D02*
Y247500D01*
X285299Y216768D02*
X287067Y215000D01*
X367035Y208500D02*
X369268Y210732D01*
X362500Y208500D02*
X367035D01*
X352543Y202957D02*
X352587Y203000D01*
X353500D01*
X355102Y198181D02*
Y200811D01*
X356181Y201889D01*
X349984Y198181D02*
X350468Y198665D01*
Y204969D02*
X350500Y205000D01*
X350468Y198665D02*
Y204969D01*
X357968Y202468D02*
X359000Y203500D01*
X357661Y198181D02*
X357968Y198488D01*
Y202468D01*
X356000Y206000D02*
X356181Y205819D01*
Y201889D02*
Y205819D01*
X373232Y263000D02*
X375500D01*
X373000Y263232D02*
X373232Y263000D01*
X322500Y215000D02*
X322657Y215158D01*
X305500Y254945D02*
X307555D01*
X317000Y245500D01*
X349500Y240500D02*
Y244268D01*
X347000Y246768D02*
X349500Y244268D01*
X349949Y243819D01*
X342035Y211965D02*
X345000D01*
X401232Y243000D02*
X406232D01*
X406500Y243268D01*
X340500Y249000D02*
Y253000D01*
X343681Y256181D01*
X349163D01*
X344268Y250232D02*
X347000D01*
X344000Y250500D02*
X344268Y250232D01*
X341500Y211429D02*
X342035Y211965D01*
X341500Y211000D02*
Y211429D01*
X362500Y193500D02*
X377500D01*
X378000D01*
X355102Y220819D02*
Y223898D01*
X350728Y228272D02*
X355102Y223898D01*
X343264Y224000D02*
X344764Y225500D01*
X345000D01*
X331000Y245500D02*
X335555Y240945D01*
X317000Y245500D02*
X331000D01*
X325500Y240500D02*
X326500Y239500D01*
X347446Y228272D02*
X350728D01*
X335555Y232402D02*
X340551D01*
X335555D02*
Y240945D01*
X360221Y198181D02*
Y200843D01*
X362000Y202622D01*
Y205000D01*
X381500Y240268D02*
X381768Y240000D01*
Y230000D02*
Y235000D01*
Y240000D01*
X373000Y259000D02*
Y259768D01*
Y259000D02*
X374000Y258000D01*
X376000D01*
X378736D01*
X342705Y234555D02*
X344000D01*
X361906Y257205D02*
X367673D01*
D31*
X456510Y211308D02*
X461340D01*
Y263908D01*
X431540D02*
X461340D01*
X411330Y243708D02*
X431540Y263908D01*
D32*
X406500Y243268D02*
X410950D01*
D33*
X357968Y262972D02*
X358000Y263004D01*
D34*
X297657Y258500D02*
X301945D01*
X305500Y254945D01*
X297201Y245500D02*
X302945D01*
X305500Y248055D01*
Y236201D02*
Y248055D01*
X285299Y216768D02*
Y227500D01*
X277000Y201736D02*
X282236Y196500D01*
X277000Y201736D02*
Y223500D01*
X272685Y227815D02*
X277000Y223500D01*
X267500Y227815D02*
X272685D01*
X285299Y236500D02*
Y241500D01*
Y245000D01*
X375000Y252732D02*
X378035D01*
X381768Y249000D01*
X375000Y249268D02*
X380535Y243732D01*
X385232Y249000D02*
X386500D01*
X392500Y243000D01*
X397768D01*
X301945Y258945D02*
X304000Y261000D01*
X289000Y223799D02*
X305500D01*
X285299Y227500D02*
X289000Y223799D01*
X267500Y245299D02*
X285299Y227500D01*
X322657Y215158D02*
Y224000D01*
X323500Y228000D02*
Y229402D01*
X326500Y232402D01*
Y239500D01*
X322000Y224658D02*
X322657Y224000D01*
X322000Y224658D02*
Y226500D01*
X323500Y228000D01*
X402000Y250000D02*
X405268Y246732D01*
X406500D01*
X378736Y258000D02*
X379000Y257736D01*
D35*
X378500Y265500D02*
D03*
X363874Y266374D02*
D03*
X365000Y203500D02*
D03*
X368000Y205500D02*
D03*
X375000Y202500D02*
D03*
X289000Y267500D02*
D03*
X279000D02*
D03*
X371000Y203500D02*
D03*
X352000Y249000D02*
D03*
X345500Y259000D02*
D03*
X348000Y253500D02*
D03*
X352500Y262500D02*
D03*
X368000Y245500D02*
D03*
X354000Y246500D02*
D03*
X372500Y216000D02*
D03*
X299000Y267000D02*
D03*
X300000Y251000D02*
D03*
X285299Y241500D02*
D03*
X304000Y261000D02*
D03*
X306500Y214000D02*
D03*
X314500Y256500D02*
D03*
X362500Y208500D02*
D03*
X345000Y205000D02*
D03*
X350500D02*
D03*
X356000Y206000D02*
D03*
X353500Y203000D02*
D03*
X359000Y203500D02*
D03*
X341500Y202000D02*
D03*
X268500Y267500D02*
D03*
X294500Y262500D02*
D03*
X375500Y263000D02*
D03*
X323500Y228000D02*
D03*
X310000Y236500D02*
D03*
X308500Y267500D02*
D03*
X285000Y251500D02*
D03*
X274500Y197500D02*
D03*
X338000Y209500D02*
D03*
X372000Y207500D02*
D03*
X362000Y205000D02*
D03*
X339000Y242500D02*
D03*
X320500Y249000D02*
D03*
X282000Y261500D02*
D03*
X349500Y240500D02*
D03*
X340500Y249000D02*
D03*
X344000Y250500D02*
D03*
X322000Y241500D02*
D03*
X329500Y221000D02*
D03*
X341500Y211000D02*
D03*
X377500Y193500D02*
D03*
X347446Y228272D02*
D03*
X345000Y225500D02*
D03*
X325500Y240500D02*
D03*
X309500Y241750D02*
D03*
X390000Y236000D02*
D03*
X399500D02*
D03*
X384500Y257500D02*
D03*
X392500D02*
D03*
X400000Y268500D02*
D03*
Y261000D02*
D03*
X399500Y227000D02*
D03*
Y217000D02*
D03*
Y207000D02*
D03*
Y196500D02*
D03*
X318000Y267500D02*
D03*
X340000Y266500D02*
D03*
X384000Y207500D02*
D03*
X335000Y249000D02*
D03*
X329500Y267500D02*
D03*
X376000Y258000D02*
D03*
D36*
X362102Y253071D02*
D03*
X357772D02*
D03*
X362102Y257402D02*
D03*
X357772D02*
D03*
M02*
