%FSLAX25Y25*%
%MOIN*%
G70*
G01*
G75*
%ADD18C,0.06000*%
%ADD21R,0.02520X0.02362*%
%ADD22R,0.02362X0.02520*%
%ADD28R,0.05512X0.05118*%
%ADD37R,0.08268X0.06299*%
%ADD38R,0.01575X0.05315*%
%ADD39R,0.07480X0.05709*%
%ADD40O,0.05709X0.02362*%
%ADD41R,0.04528X0.05512*%
%ADD42R,0.04528X0.05315*%
D18*
X267500Y247500D02*
D03*
Y227815D02*
D03*
Y208130D02*
D03*
D21*
X325000Y208732D02*
D03*
Y205268D02*
D03*
X285000Y255268D02*
D03*
Y258732D02*
D03*
D22*
X347268Y231500D02*
D03*
X350732D02*
D03*
X347268Y221000D02*
D03*
X350732D02*
D03*
X325268Y237500D02*
D03*
X328732D02*
D03*
D28*
X332000Y207150D02*
D03*
Y200850D02*
D03*
D37*
X312980Y207047D02*
D03*
X288571D02*
D03*
D38*
X298217Y207539D02*
D03*
X303335D02*
D03*
X305894D02*
D03*
X295657D02*
D03*
X300776D02*
D03*
D39*
X315539Y197500D02*
D03*
X305500D02*
D03*
X296051D02*
D03*
X286012D02*
D03*
D40*
X293272Y216500D02*
D03*
Y221500D02*
D03*
Y226500D02*
D03*
Y231500D02*
D03*
Y236500D02*
D03*
Y241500D02*
D03*
Y246500D02*
D03*
Y251500D02*
D03*
X314728Y216500D02*
D03*
Y221500D02*
D03*
Y226500D02*
D03*
Y231500D02*
D03*
Y236500D02*
D03*
Y241500D02*
D03*
Y246500D02*
D03*
Y251500D02*
D03*
D41*
X333850Y216669D02*
D03*
X340150D02*
D03*
X333850Y225331D02*
D03*
X340150D02*
D03*
D42*
X308055Y261500D02*
D03*
X314945D02*
D03*
M02*
