%FSLAX25Y25*%
%MOIN*%
G70*
G01*
G75*
%ADD30C,0.01000*%
%ADD35C,0.02362*%
%ADD36C,0.01968*%
G36*
X402500Y248653D02*
X402038Y248462D01*
X395264Y255236D01*
X367673D01*
Y253268D01*
X382587Y238354D01*
X402500D01*
Y191004D01*
X377603D01*
X377553Y191504D01*
X378268Y191646D01*
X378919Y192081D01*
X379354Y192732D01*
X379507Y193500D01*
X379354Y194268D01*
X378919Y194919D01*
X378268Y195354D01*
X377500Y195507D01*
X376732Y195354D01*
X376081Y194919D01*
X375646Y194268D01*
X375493Y193500D01*
X375646Y192732D01*
X376081Y192081D01*
X376732Y191646D01*
X377447Y191504D01*
X377397Y191004D01*
X263003D01*
X263003Y270497D01*
X402500Y270497D01*
Y248653D01*
D02*
G37*
%LPC*%
G36*
X310000Y238507D02*
X309232Y238354D01*
X308581Y237919D01*
X308146Y237268D01*
X307993Y236500D01*
X308146Y235732D01*
X308581Y235081D01*
X309232Y234646D01*
X310000Y234493D01*
X310768Y234646D01*
X311419Y235081D01*
X311854Y235732D01*
X312007Y236500D01*
X311854Y237268D01*
X311419Y237919D01*
X310768Y238354D01*
X310000Y238507D01*
D02*
G37*
G36*
X347446Y230279D02*
X346678Y230126D01*
X346027Y229691D01*
X345592Y229040D01*
X345439Y228272D01*
X345510Y227915D01*
X345085Y227490D01*
X345000Y227507D01*
X344232Y227354D01*
X343581Y226919D01*
X343146Y226268D01*
X342993Y225500D01*
X343146Y224732D01*
X343581Y224081D01*
X344232Y223646D01*
X345000Y223493D01*
X345768Y223646D01*
X346419Y224081D01*
X346854Y224732D01*
X347007Y225500D01*
X346936Y225856D01*
X347361Y226281D01*
X347446Y226265D01*
X348214Y226417D01*
X348866Y226852D01*
X349301Y227504D01*
X349453Y228272D01*
X349301Y229040D01*
X348866Y229691D01*
X348214Y230126D01*
X347446Y230279D01*
D02*
G37*
G36*
X267500Y231635D02*
X266511Y231505D01*
X265590Y231123D01*
X264799Y230516D01*
X264192Y229725D01*
X263810Y228804D01*
X263680Y227815D01*
X263810Y226826D01*
X264192Y225905D01*
X264799Y225114D01*
X265590Y224507D01*
X266511Y224125D01*
X267500Y223995D01*
X268489Y224125D01*
X269410Y224507D01*
X270201Y225114D01*
X270808Y225905D01*
X271190Y226826D01*
X271320Y227815D01*
X271190Y228804D01*
X270808Y229725D01*
X270201Y230516D01*
X269410Y231123D01*
X268489Y231505D01*
X267500Y231635D01*
D02*
G37*
G36*
X323500Y230007D02*
X322732Y229854D01*
X322081Y229419D01*
X321646Y228768D01*
X321493Y228000D01*
X321646Y227232D01*
X322081Y226581D01*
X322732Y226146D01*
X323500Y225993D01*
X324268Y226146D01*
X324919Y226581D01*
X325354Y227232D01*
X325507Y228000D01*
X325354Y228768D01*
X324919Y229419D01*
X324268Y229854D01*
X323500Y230007D01*
D02*
G37*
G36*
X285299Y243507D02*
X284531Y243354D01*
X283880Y242919D01*
X283445Y242268D01*
X283292Y241500D01*
X283445Y240732D01*
X283880Y240081D01*
X284531Y239646D01*
X285299Y239493D01*
X286067Y239646D01*
X286718Y240081D01*
X287154Y240732D01*
X287306Y241500D01*
X287154Y242268D01*
X286718Y242919D01*
X286067Y243354D01*
X285299Y243507D01*
D02*
G37*
G36*
X309500Y243757D02*
X308732Y243604D01*
X308081Y243169D01*
X307646Y242518D01*
X307493Y241750D01*
X307646Y240982D01*
X308081Y240331D01*
X308732Y239896D01*
X309500Y239743D01*
X310268Y239896D01*
X310919Y240331D01*
X311354Y240982D01*
X311507Y241750D01*
X311354Y242518D01*
X310919Y243169D01*
X310268Y243604D01*
X309500Y243757D01*
D02*
G37*
G36*
X322000Y243507D02*
X321232Y243354D01*
X320581Y242919D01*
X320146Y242268D01*
X319993Y241500D01*
X320146Y240732D01*
X320581Y240081D01*
X321232Y239646D01*
X322000Y239493D01*
X322768Y239646D01*
X323108Y239873D01*
X323646Y239732D01*
X324081Y239081D01*
X324732Y238646D01*
X325500Y238493D01*
X326268Y238646D01*
X326919Y239081D01*
X327354Y239732D01*
X327507Y240500D01*
X327354Y241268D01*
X326919Y241919D01*
X326268Y242354D01*
X325500Y242507D01*
X324732Y242354D01*
X324392Y242127D01*
X323854Y242268D01*
X323419Y242919D01*
X322768Y243354D01*
X322000Y243507D01*
D02*
G37*
G36*
X349500Y242507D02*
X348732Y242354D01*
X348081Y241919D01*
X347646Y241268D01*
X347493Y240500D01*
X347646Y239732D01*
X348081Y239081D01*
X348732Y238646D01*
X349500Y238493D01*
X350268Y238646D01*
X350919Y239081D01*
X351354Y239732D01*
X351507Y240500D01*
X351354Y241268D01*
X350919Y241919D01*
X350268Y242354D01*
X349500Y242507D01*
D02*
G37*
G36*
X329500Y223007D02*
X328732Y222854D01*
X328081Y222419D01*
X327646Y221768D01*
X327493Y221000D01*
X327646Y220232D01*
X328081Y219581D01*
X328732Y219146D01*
X329500Y218993D01*
X330268Y219146D01*
X330919Y219581D01*
X331354Y220232D01*
X331507Y221000D01*
X331354Y221768D01*
X330919Y222419D01*
X330268Y222854D01*
X329500Y223007D01*
D02*
G37*
G36*
X267500Y211950D02*
X266511Y211820D01*
X265590Y211438D01*
X264799Y210831D01*
X264192Y210040D01*
X263810Y209119D01*
X263680Y208130D01*
X263810Y207141D01*
X264192Y206220D01*
X264799Y205429D01*
X265590Y204822D01*
X266511Y204440D01*
X267500Y204310D01*
X268489Y204440D01*
X269410Y204822D01*
X270201Y205429D01*
X270808Y206220D01*
X271190Y207141D01*
X271320Y208130D01*
X271190Y209119D01*
X270808Y210040D01*
X270201Y210831D01*
X269410Y211438D01*
X268489Y211820D01*
X267500Y211950D01*
D02*
G37*
G36*
X356000Y208007D02*
X355232Y207854D01*
X354581Y207419D01*
X354146Y206768D01*
X353993Y206000D01*
X354113Y205395D01*
X353839Y205033D01*
X353729Y204962D01*
X353500Y205007D01*
X352997Y204907D01*
X352653Y204972D01*
X352453Y205270D01*
X352354Y205768D01*
X351919Y206419D01*
X351268Y206854D01*
X350500Y207007D01*
X349732Y206854D01*
X349081Y206419D01*
X348646Y205768D01*
X348493Y205000D01*
X348646Y204232D01*
X349081Y203581D01*
X349732Y203146D01*
X350500Y202993D01*
X351003Y203093D01*
X351347Y203028D01*
X351547Y202730D01*
X351646Y202232D01*
X352081Y201581D01*
X352732Y201146D01*
X353500Y200993D01*
X354268Y201146D01*
X354919Y201581D01*
X355354Y202232D01*
X355507Y203000D01*
X355387Y203605D01*
X355661Y203967D01*
X355771Y204038D01*
X356000Y203993D01*
X356605Y204113D01*
X356967Y203839D01*
X357038Y203729D01*
X356993Y203500D01*
X357146Y202732D01*
X357581Y202081D01*
X358232Y201646D01*
X359000Y201493D01*
X359768Y201646D01*
X360419Y202081D01*
X360854Y202732D01*
X361007Y203500D01*
X360854Y204268D01*
X360419Y204919D01*
X359768Y205354D01*
X359000Y205507D01*
X358395Y205387D01*
X358033Y205661D01*
X357962Y205771D01*
X358007Y206000D01*
X357854Y206768D01*
X357419Y207419D01*
X356768Y207854D01*
X356000Y208007D01*
D02*
G37*
G36*
X341500Y204007D02*
X340732Y203854D01*
X340081Y203419D01*
X339646Y202768D01*
X339493Y202000D01*
X339646Y201232D01*
X340081Y200581D01*
X340732Y200146D01*
X341500Y199993D01*
X342268Y200146D01*
X342919Y200581D01*
X343354Y201232D01*
X343507Y202000D01*
X343354Y202768D01*
X342919Y203419D01*
X342268Y203854D01*
X341500Y204007D01*
D02*
G37*
G36*
X345000Y207007D02*
X344232Y206854D01*
X343581Y206419D01*
X343146Y205768D01*
X342993Y205000D01*
X343146Y204232D01*
X343581Y203581D01*
X344232Y203146D01*
X345000Y202993D01*
X345768Y203146D01*
X346419Y203581D01*
X346854Y204232D01*
X347007Y205000D01*
X346854Y205768D01*
X346419Y206419D01*
X345768Y206854D01*
X345000Y207007D01*
D02*
G37*
G36*
X368000Y207507D02*
X367232Y207354D01*
X366581Y206919D01*
X366146Y206268D01*
X366047Y205770D01*
X365847Y205472D01*
X365503Y205407D01*
X365000Y205507D01*
X364232Y205354D01*
X363581Y204919D01*
X363146Y204268D01*
X362993Y203500D01*
X363146Y202732D01*
X363581Y202081D01*
X364232Y201646D01*
X365000Y201493D01*
X365768Y201646D01*
X366419Y202081D01*
X366854Y202732D01*
X366953Y203230D01*
X367153Y203528D01*
X367497Y203593D01*
X368000Y203493D01*
X368503Y203593D01*
X368847Y203528D01*
X369046Y203230D01*
X369146Y202732D01*
X369581Y202081D01*
X370232Y201646D01*
X371000Y201493D01*
X371768Y201646D01*
X372419Y202081D01*
X372533Y202251D01*
X373063Y202145D01*
X373146Y201732D01*
X373581Y201081D01*
X374232Y200646D01*
X375000Y200493D01*
X375768Y200646D01*
X376419Y201081D01*
X376854Y201732D01*
X377007Y202500D01*
X376854Y203268D01*
X376419Y203919D01*
X375768Y204354D01*
X375000Y204507D01*
X374232Y204354D01*
X373581Y203919D01*
X373467Y203749D01*
X372937Y203855D01*
X372854Y204268D01*
X372419Y204919D01*
X371768Y205354D01*
X371000Y205507D01*
X370497Y205407D01*
X370153Y205472D01*
X369953Y205770D01*
X369854Y206268D01*
X369419Y206919D01*
X368768Y207354D01*
X368000Y207507D01*
D02*
G37*
G36*
X306500Y216007D02*
X305732Y215854D01*
X305081Y215419D01*
X304646Y214768D01*
X304493Y214000D01*
X304646Y213232D01*
X305081Y212581D01*
X305732Y212146D01*
X306500Y211993D01*
X307268Y212146D01*
X307919Y212581D01*
X308354Y213232D01*
X308507Y214000D01*
X308354Y214768D01*
X307919Y215419D01*
X307268Y215854D01*
X306500Y216007D01*
D02*
G37*
G36*
X372500Y218007D02*
X371732Y217854D01*
X371081Y217419D01*
X370646Y216768D01*
X370493Y216000D01*
X370646Y215232D01*
X371081Y214581D01*
X371732Y214146D01*
X372500Y213993D01*
X373268Y214146D01*
X373919Y214581D01*
X374354Y215232D01*
X374507Y216000D01*
X374354Y216768D01*
X373919Y217419D01*
X373268Y217854D01*
X372500Y218007D01*
D02*
G37*
G36*
X362500Y210507D02*
X361732Y210354D01*
X361081Y209919D01*
X360646Y209268D01*
X360493Y208500D01*
X360646Y207732D01*
X361081Y207081D01*
X361732Y206646D01*
X362500Y206493D01*
X363268Y206646D01*
X363919Y207081D01*
X364354Y207732D01*
X364507Y208500D01*
X364354Y209268D01*
X363919Y209919D01*
X363268Y210354D01*
X362500Y210507D01*
D02*
G37*
G36*
X341500Y213007D02*
X340732Y212854D01*
X340081Y212419D01*
X339646Y211768D01*
X339493Y211000D01*
X339646Y210232D01*
X340081Y209581D01*
X340732Y209146D01*
X341500Y208993D01*
X342268Y209146D01*
X342919Y209581D01*
X343354Y210232D01*
X343507Y211000D01*
X343354Y211768D01*
X342919Y212419D01*
X342268Y212854D01*
X341500Y213007D01*
D02*
G37*
G36*
X368000Y247507D02*
X367232Y247354D01*
X366581Y246919D01*
X366146Y246268D01*
X365993Y245500D01*
X366146Y244732D01*
X366581Y244081D01*
X367232Y243646D01*
X368000Y243493D01*
X368768Y243646D01*
X369419Y244081D01*
X369854Y244732D01*
X370007Y245500D01*
X369854Y246268D01*
X369419Y246919D01*
X368768Y247354D01*
X368000Y247507D01*
D02*
G37*
G36*
X363874Y268381D02*
X363106Y268228D01*
X362455Y267793D01*
X362020Y267142D01*
X361867Y266374D01*
X362020Y265606D01*
X362455Y264955D01*
X363106Y264520D01*
X363874Y264367D01*
X364642Y264520D01*
X365293Y264955D01*
X365728Y265606D01*
X365881Y266374D01*
X365728Y267142D01*
X365293Y267793D01*
X364642Y268228D01*
X363874Y268381D01*
D02*
G37*
G36*
X378500Y267507D02*
X377732Y267354D01*
X377081Y266919D01*
X376646Y266268D01*
X376493Y265500D01*
X376538Y265271D01*
X376467Y265161D01*
X376105Y264887D01*
X375500Y265007D01*
X374732Y264854D01*
X374081Y264419D01*
X373646Y263768D01*
X373493Y263000D01*
X373646Y262232D01*
X374081Y261581D01*
X374732Y261146D01*
X375500Y260993D01*
X376268Y261146D01*
X376919Y261581D01*
X377354Y262232D01*
X377507Y263000D01*
X377462Y263229D01*
X377533Y263339D01*
X377895Y263613D01*
X378500Y263493D01*
X379268Y263646D01*
X379919Y264081D01*
X380354Y264732D01*
X380507Y265500D01*
X380354Y266268D01*
X379919Y266919D01*
X379268Y267354D01*
X378500Y267507D01*
D02*
G37*
G36*
X294500Y264507D02*
X293732Y264354D01*
X293081Y263919D01*
X292646Y263268D01*
X292493Y262500D01*
X292646Y261732D01*
X293081Y261081D01*
X293732Y260646D01*
X294500Y260493D01*
X295268Y260646D01*
X295919Y261081D01*
X296354Y261732D01*
X296507Y262500D01*
X296354Y263268D01*
X295919Y263919D01*
X295268Y264354D01*
X294500Y264507D01*
D02*
G37*
G36*
X352500D02*
X351732Y264354D01*
X351081Y263919D01*
X350646Y263268D01*
X350493Y262500D01*
X350646Y261732D01*
X351081Y261081D01*
X351732Y260646D01*
X352500Y260493D01*
X353268Y260646D01*
X353919Y261081D01*
X354354Y261732D01*
X354507Y262500D01*
X354354Y263268D01*
X353919Y263919D01*
X353268Y264354D01*
X352500Y264507D01*
D02*
G37*
G36*
X299000Y269007D02*
X298232Y268854D01*
X297581Y268419D01*
X297146Y267768D01*
X296993Y267000D01*
X297146Y266232D01*
X297581Y265581D01*
X298232Y265146D01*
X299000Y264993D01*
X299768Y265146D01*
X300419Y265581D01*
X300854Y266232D01*
X301007Y267000D01*
X300854Y267768D01*
X300419Y268419D01*
X299768Y268854D01*
X299000Y269007D01*
D02*
G37*
G36*
X289000Y269507D02*
X288232Y269354D01*
X287581Y268919D01*
X287146Y268268D01*
X286993Y267500D01*
X287146Y266732D01*
X287581Y266081D01*
X288232Y265646D01*
X289000Y265493D01*
X289768Y265646D01*
X290419Y266081D01*
X290854Y266732D01*
X291007Y267500D01*
X290854Y268268D01*
X290419Y268919D01*
X289768Y269354D01*
X289000Y269507D01*
D02*
G37*
G36*
X308500D02*
X307732Y269354D01*
X307081Y268919D01*
X306646Y268268D01*
X306493Y267500D01*
X306646Y266732D01*
X307081Y266081D01*
X307732Y265646D01*
X308500Y265493D01*
X309268Y265646D01*
X309919Y266081D01*
X310354Y266732D01*
X310507Y267500D01*
X310354Y268268D01*
X309919Y268919D01*
X309268Y269354D01*
X308500Y269507D01*
D02*
G37*
G36*
X268500D02*
X267732Y269354D01*
X267081Y268919D01*
X266646Y268268D01*
X266493Y267500D01*
X266646Y266732D01*
X267081Y266081D01*
X267732Y265646D01*
X268500Y265493D01*
X269268Y265646D01*
X269919Y266081D01*
X270354Y266732D01*
X270507Y267500D01*
X270354Y268268D01*
X269919Y268919D01*
X269268Y269354D01*
X268500Y269507D01*
D02*
G37*
G36*
X279000D02*
X278232Y269354D01*
X277581Y268919D01*
X277146Y268268D01*
X276993Y267500D01*
X277146Y266732D01*
X277581Y266081D01*
X278232Y265646D01*
X279000Y265493D01*
X279768Y265646D01*
X280419Y266081D01*
X280854Y266732D01*
X281007Y267500D01*
X280854Y268268D01*
X280419Y268919D01*
X279768Y269354D01*
X279000Y269507D01*
D02*
G37*
G36*
X340500Y251007D02*
X339732Y250854D01*
X339081Y250419D01*
X338646Y249768D01*
X338493Y249000D01*
X338646Y248232D01*
X339081Y247581D01*
X339732Y247146D01*
X340500Y246993D01*
X341268Y247146D01*
X341919Y247581D01*
X342354Y248232D01*
X342507Y249000D01*
X342354Y249768D01*
X341919Y250419D01*
X341268Y250854D01*
X340500Y251007D01*
D02*
G37*
G36*
X300000Y253007D02*
X299232Y252854D01*
X298581Y252419D01*
X298146Y251768D01*
X297993Y251000D01*
X298146Y250232D01*
X298581Y249581D01*
X299232Y249146D01*
X300000Y248993D01*
X300768Y249146D01*
X301419Y249581D01*
X301854Y250232D01*
X302007Y251000D01*
X301854Y251768D01*
X301419Y252419D01*
X300768Y252854D01*
X300000Y253007D01*
D02*
G37*
G36*
X267500Y251320D02*
X266511Y251190D01*
X265590Y250808D01*
X264799Y250201D01*
X264192Y249410D01*
X263810Y248489D01*
X263680Y247500D01*
X263810Y246511D01*
X264192Y245590D01*
X264799Y244799D01*
X265590Y244192D01*
X266511Y243810D01*
X267500Y243680D01*
X268489Y243810D01*
X269410Y244192D01*
X270201Y244799D01*
X270808Y245590D01*
X271190Y246511D01*
X271320Y247500D01*
X271190Y248489D01*
X270808Y249410D01*
X270201Y250201D01*
X269410Y250808D01*
X268489Y251190D01*
X267500Y251320D01*
D02*
G37*
G36*
X352000Y251007D02*
X351232Y250854D01*
X350581Y250419D01*
X350146Y249768D01*
X349993Y249000D01*
X350146Y248232D01*
X350581Y247581D01*
X351232Y247146D01*
X351597Y247073D01*
X351997Y246521D01*
X351993Y246500D01*
X352146Y245732D01*
X352581Y245081D01*
X353232Y244646D01*
X354000Y244493D01*
X354768Y244646D01*
X355419Y245081D01*
X355854Y245732D01*
X356007Y246500D01*
X355854Y247268D01*
X355419Y247919D01*
X354768Y248354D01*
X354403Y248427D01*
X354003Y248979D01*
X354007Y249000D01*
X353854Y249768D01*
X353419Y250419D01*
X352768Y250854D01*
X352000Y251007D01*
D02*
G37*
G36*
X285000Y253507D02*
X284232Y253354D01*
X283581Y252919D01*
X283146Y252268D01*
X282993Y251500D01*
X283146Y250732D01*
X283581Y250081D01*
X284232Y249646D01*
X285000Y249493D01*
X285768Y249646D01*
X286419Y250081D01*
X286854Y250732D01*
X287007Y251500D01*
X286854Y252268D01*
X286419Y252919D01*
X285768Y253354D01*
X285000Y253507D01*
D02*
G37*
G36*
X345500Y261007D02*
X344732Y260854D01*
X344081Y260419D01*
X343646Y259768D01*
X343493Y259000D01*
X343646Y258232D01*
X344081Y257581D01*
X344732Y257146D01*
X345500Y256993D01*
X346268Y257146D01*
X346919Y257581D01*
X347354Y258232D01*
X347507Y259000D01*
X347354Y259768D01*
X346919Y260419D01*
X346268Y260854D01*
X345500Y261007D01*
D02*
G37*
G36*
X304000Y263007D02*
X303232Y262854D01*
X302581Y262419D01*
X302146Y261768D01*
X301993Y261000D01*
X302146Y260232D01*
X302581Y259581D01*
X303232Y259146D01*
X304000Y258993D01*
X304768Y259146D01*
X305419Y259581D01*
X305854Y260232D01*
X306007Y261000D01*
X305854Y261768D01*
X305419Y262419D01*
X304768Y262854D01*
X304000Y263007D01*
D02*
G37*
G36*
X348000Y255507D02*
X347232Y255354D01*
X346581Y254919D01*
X346146Y254268D01*
X345993Y253500D01*
X346146Y252732D01*
X346581Y252081D01*
X347232Y251646D01*
X348000Y251493D01*
X348768Y251646D01*
X349419Y252081D01*
X349854Y252732D01*
X350007Y253500D01*
X349854Y254268D01*
X349419Y254919D01*
X348768Y255354D01*
X348000Y255507D01*
D02*
G37*
G36*
X314500Y258507D02*
X313732Y258354D01*
X313081Y257919D01*
X312646Y257268D01*
X312493Y256500D01*
X312646Y255732D01*
X313081Y255081D01*
X313732Y254646D01*
X314500Y254493D01*
X315268Y254646D01*
X315919Y255081D01*
X316354Y255732D01*
X316507Y256500D01*
X316354Y257268D01*
X315919Y257919D01*
X315268Y258354D01*
X314500Y258507D01*
D02*
G37*
%LPD*%
D30*
X350000Y205000D02*
X350500D01*
D35*
D03*
X274500Y197500D02*
D03*
X338000Y209500D02*
D03*
X372000Y207500D02*
D03*
X362000Y205000D02*
D03*
X339000Y242500D02*
D03*
X320500Y249000D02*
D03*
X282000Y261500D02*
D03*
X344000Y250500D02*
D03*
X390000Y236000D02*
D03*
X399500D02*
D03*
X384500Y257500D02*
D03*
X392500D02*
D03*
X400000Y268500D02*
D03*
Y261000D02*
D03*
X399500Y227000D02*
D03*
Y217000D02*
D03*
Y207000D02*
D03*
Y196500D02*
D03*
X318000Y267500D02*
D03*
X340000Y266500D02*
D03*
X384000Y207500D02*
D03*
X335000Y249000D02*
D03*
X329500Y267500D02*
D03*
X376000Y258000D02*
D03*
D36*
X362102Y253071D02*
D03*
X357772D02*
D03*
X362102Y257402D02*
D03*
X357772D02*
D03*
M02*
